<svg version="1.1" id="Layer_1" xmlns="http://www.w3.org/2000/svg" xmlns:xlink="http://www.w3.org/1999/xlink" x="0px" y="0px"
	 width="100%" viewBox="0 0 482 401" enable-background="new 0 0 482 401" xml:space="preserve">
<path fill="#010202" opacity="1.000000" stroke="none" 
	d="
M276.000000,1.000000 
	C344.982330,1.000000 413.964691,1.000000 482.973511,1.000000 
	C482.973511,134.614777 482.973511,268.229584 482.973511,401.922180 
	C322.426392,401.922180 161.852707,401.922180 1.139521,401.922180 
	C1.139521,268.333435 1.139521,134.666733 1.139521,1.000000 
	C69.434128,1.000000 137.750092,1.000000 206.528336,1.468610 
	C206.990631,8.889211 206.990631,15.841201 206.990631,22.793190 
	C208.007599,17.495184 208.259628,12.193330 207.926056,6.928579 
	C207.669739,2.882908 209.157288,1.881265 213.021255,1.916034 
	C232.289856,2.089422 251.560959,2.020816 270.830872,1.952424 
	C272.555023,1.946304 274.277008,1.331902 276.000000,1.000000 
M44.887001,348.634949 
	C45.259884,348.703125 45.632767,348.771301 46.895565,348.969177 
	C49.586697,348.911438 52.277828,348.853668 55.828949,348.627045 
	C55.951374,341.417847 56.073803,334.208649 56.948723,326.997955 
	C58.742409,326.370148 60.603912,325.885345 62.311279,325.075531 
	C64.130440,324.212738 65.803833,323.042603 67.747360,322.921936 
	C67.747360,335.424805 67.747360,347.927643 67.747360,360.545715 
	C74.707596,360.545715 80.995872,360.409271 87.268982,360.657013 
	C88.575546,360.708649 89.825989,362.181580 90.915283,363.873413 
	C90.980156,366.251740 91.045029,368.630035 91.012695,371.590302 
	C91.339622,371.705383 91.666550,371.820465 92.910072,372.142792 
	C98.606934,372.072205 104.303795,372.001587 110.919434,372.129303 
	C195.627060,372.141541 280.334686,372.158356 365.042297,372.155731 
	C370.694275,372.155548 376.346222,372.007965 382.881195,372.127563 
	C385.589447,372.064972 388.297668,372.002380 391.627380,372.028900 
	C391.760529,371.684326 391.893677,371.339752 392.265381,370.118530 
	C392.238647,367.102478 392.211914,364.086426 392.706177,360.841309 
	C392.801910,360.677521 392.897614,360.513763 393.883270,360.496521 
	C400.951294,360.496521 408.019348,360.496521 415.280182,360.496521 
	C415.280182,358.559204 415.279297,357.408813 415.280304,356.258453 
	C415.320923,310.307770 415.387573,264.357086 415.387543,218.406403 
	C415.387543,203.600174 415.212128,188.793961 415.361328,173.079895 
	C415.262085,166.386871 415.162842,159.693848 415.236481,152.405624 
	C415.177216,152.207687 415.117981,152.009766 415.159363,151.505753 
	C415.159363,151.505753 415.245148,151.195190 415.770691,150.513428 
	C415.770691,143.644882 415.770691,136.776337 415.770691,129.907776 
	C415.460236,129.903748 415.149811,129.899719 414.839355,129.895676 
	C414.839355,136.885818 414.839355,143.875961 414.507324,151.142776 
	C414.277771,151.329025 414.108521,151.559540 413.071991,151.975708 
	C406.083069,151.899673 399.094147,151.823639 392.154083,150.871078 
	C392.081940,147.911057 392.009766,144.951035 392.102966,141.435669 
	C391.738525,141.132278 391.374115,140.828888 390.104889,140.264130 
	C294.560425,140.237854 199.015961,140.210739 103.471504,140.195343 
	C102.314545,140.195160 101.157570,140.345825 99.184258,140.219543 
	C97.789581,140.289124 96.394913,140.358688 94.344002,140.221558 
	C93.896179,140.291687 93.448364,140.361832 92.376991,140.245773 
	C91.985222,140.829865 91.593452,141.413940 91.034538,142.660736 
	C91.095497,143.108170 91.156456,143.555588 91.039680,144.891647 
	C91.039680,147.142838 91.039680,149.394028 91.039680,152.119751 
	C82.924294,152.119751 75.395050,152.119751 67.451813,152.119751 
	C67.451813,156.412506 67.451813,160.201859 66.720268,163.998062 
	C64.969315,164.676010 63.221634,165.362564 61.466484,166.029465 
	C59.710419,166.696732 57.946888,167.344345 56.013729,167.110840 
	C56.226238,164.934402 55.945251,163.279083 53.056404,163.572174 
	C51.640141,163.715866 50.179882,163.425949 48.177742,163.027115 
	C47.115673,163.677414 46.053608,164.327713 44.995148,165.918015 
	C44.963253,172.281082 44.931358,178.644150 44.635593,185.511429 
	C44.421883,186.018723 44.208176,186.526016 43.067806,186.996155 
	C39.787163,186.996155 36.506519,186.996155 32.704163,186.996155 
	C32.704163,194.849594 32.704163,202.232376 32.704163,209.861725 
	C24.886362,209.861725 17.605223,209.861725 10.151857,209.861725 
	C10.151857,240.837769 10.151857,271.531616 10.151857,302.767090 
	C17.877550,302.767090 25.277792,302.767090 33.124352,302.767090 
	C33.124352,310.702454 33.124352,318.102448 33.124352,325.472961 
	C37.360874,325.765747 41.130768,326.026306 44.658287,327.158051 
	C44.714420,333.759308 44.770557,340.360535 44.663391,347.501862 
	C44.740681,347.673340 44.817974,347.844788 44.887001,348.634949 
M275.192719,35.852306 
	C271.815216,35.808754 268.437683,35.765205 265.037079,35.283600 
	C265.037079,35.283600 264.705414,34.996487 264.782745,34.056156 
	C264.782745,26.973238 264.782745,19.890318 264.782745,12.882905 
	C248.924011,12.882905 233.741669,12.882905 218.217102,12.882905 
	C218.217102,20.799610 218.217102,28.278555 218.064438,35.716679 
	C218.064438,35.716679 217.956055,35.831684 217.043564,35.802223 
	C213.674225,35.882660 210.304901,35.963097 206.039612,35.813622 
	C202.459000,35.813622 198.878387,35.813622 195.350647,35.813622 
	C195.350647,47.741810 195.350647,58.995789 195.350647,70.356369 
	C199.374222,70.356369 203.144516,70.356369 207.813965,70.647095 
	C211.326065,70.766106 214.838165,70.885117 218.366364,71.937523 
	C218.366364,82.978775 218.366364,94.020035 218.366364,105.058258 
	C222.833267,105.058258 226.456802,105.058258 230.974564,105.326286 
	C238.295975,105.241608 245.617401,105.156921 253.856171,105.294632 
	C257.425049,105.294632 260.993927,105.294632 264.847961,105.294632 
	C264.847961,93.469902 264.847961,82.250305 265.717102,70.813004 
	C267.493591,70.705788 269.270081,70.598564 271.887085,70.699112 
	C273.617798,70.650398 275.348511,70.601692 277.972015,70.728966 
	C281.241577,70.728966 284.511139,70.728966 287.803955,70.728966 
	C287.803955,58.708244 287.803955,47.325321 287.803955,36.085285 
	C283.697510,36.085285 279.898621,36.085285 275.192719,35.852306 
M305.130768,116.916328 
	C302.414520,116.986267 299.698242,117.056206 296.058990,116.981659 
	C290.711853,117.030312 285.364685,117.078972 279.102264,116.923920 
	C274.396576,116.985031 269.690918,117.046143 264.199310,116.960823 
	C263.137909,117.009781 262.076538,117.058746 260.141235,116.905846 
	C257.755524,116.974701 255.369812,117.043556 252.108719,116.966225 
	C249.744553,117.015297 247.380386,117.064369 244.194000,116.910034 
	C242.790817,116.977295 241.387650,117.044556 239.165009,116.965111 
	C237.781891,117.013245 236.398788,117.061371 234.224747,116.906204 
	C233.144653,116.974068 232.064545,117.041939 230.333481,116.965309 
	C229.894211,117.013458 229.454956,117.061600 228.095688,116.906662 
	C220.392242,116.971924 212.688812,117.037178 204.059891,116.956696 
	C190.711761,117.007118 177.363617,117.057533 163.095596,116.904099 
	C151.724899,116.975121 140.354202,117.046150 128.333038,116.973198 
	C127.894226,117.021721 127.455421,117.070244 126.142410,116.916298 
	C123.755798,116.985687 121.369194,117.055077 118.073875,116.978508 
	C114.388283,117.026604 110.702698,117.074692 106.099594,116.918121 
	C101.954445,116.906090 97.804878,117.005234 93.665810,116.840462 
	C91.169716,116.741089 90.259766,117.562027 90.883949,120.860947 
	C90.930519,122.905975 90.977089,124.951012 90.970383,127.841484 
	C92.504555,128.127304 94.038673,128.662781 95.572914,128.663147 
	C176.179550,128.682281 256.786194,128.654938 337.392853,128.635727 
	C354.380219,128.631683 371.367706,128.669449 388.354736,128.594391 
	C389.956940,128.587311 392.920502,129.799683 392.198059,125.145195 
	C392.150208,123.435143 392.102356,121.725090 392.303467,119.366081 
	C391.483185,118.538239 390.713989,117.069954 389.833252,116.999695 
	C386.905334,116.766190 383.937347,117.035126 380.059174,116.966988 
	C371.044983,117.018364 362.030823,117.069748 352.195007,116.915131 
	C350.791565,116.980392 349.388123,117.045662 347.333618,116.966309 
	C346.894196,117.014084 346.454803,117.061859 345.095459,116.906349 
	C333.725098,116.973183 322.354706,117.040016 310.164490,116.963455 
	C308.781738,117.014580 307.398987,117.065712 305.130768,116.916328 
M90.877899,385.904907 
	C90.877899,388.987610 90.877899,392.070282 90.877899,395.257385 
	C92.397766,395.257385 93.224922,395.257477 94.052071,395.257355 
	C186.707336,395.241058 279.362579,395.228394 372.017853,395.200653 
	C378.343628,395.198761 384.669373,395.084473 391.672180,395.084351 
	C391.829102,394.711823 391.985992,394.339294 392.373932,393.140930 
	C392.289459,391.437469 392.204987,389.734039 392.334686,387.214447 
	C391.888123,386.133820 391.441559,385.053192 390.079895,383.756500 
	C294.377594,383.735016 198.675308,383.711060 102.973015,383.701691 
	C99.321205,383.701324 95.669373,383.842041 91.384903,383.867493 
	C91.276878,384.241547 91.168854,384.615631 90.877899,385.904907 
M439.891327,325.781830 
	C443.183624,325.781830 446.475922,325.781830 450.233765,325.781830 
	C450.233765,317.952362 450.233765,310.546143 450.233765,302.772705 
	C458.119476,302.772705 465.535828,302.772705 473.232971,302.772705 
	C473.232971,271.695801 473.232971,240.995728 473.232971,209.653152 
	C465.531860,209.653152 457.985107,209.653152 450.036621,209.653152 
	C450.036621,201.599731 450.036621,194.179596 450.036621,186.557877 
	C446.119202,186.557877 442.634033,186.557877 438.967010,185.711533 
	C438.566803,178.468430 438.166565,171.225311 437.754456,163.766953 
	C434.238617,163.766953 430.823120,163.766953 427.338287,163.766953 
	C427.338287,225.612778 427.338287,287.155548 427.338287,348.644073 
	C431.336029,348.644073 435.035309,348.644073 438.963013,348.644073 
	C438.963013,340.764008 438.963013,333.283752 439.891327,325.781830 
M294.501221,105.988258 
	C330.782166,105.988258 367.063141,105.988258 403.344086,105.988258 
	C403.342865,105.756111 403.341675,105.523956 403.340454,105.291809 
	C361.268097,105.291809 319.195740,105.291809 277.123383,105.291809 
	C277.121033,105.522972 277.118713,105.754135 277.116364,105.985298 
	C282.578339,105.985298 288.040283,105.985298 294.501221,105.988258 
M128.500000,105.004852 
	C112.556129,105.004852 96.612259,105.004852 80.668388,105.004852 
	C80.669884,105.253784 80.671387,105.502724 80.672882,105.751656 
	C122.525810,105.751656 164.378738,105.751656 206.231674,105.751656 
	C206.232834,105.502663 206.233994,105.253662 206.235153,105.004669 
	C180.656769,105.004669 155.078384,105.004669 128.500000,105.004852 
M184.001038,53.500000 
	C184.001038,44.213928 184.001038,34.927856 184.001038,25.641785 
	C183.773788,25.647161 183.546524,25.652538 183.319275,25.657913 
	C183.319275,44.221237 183.319275,62.784561 183.319275,81.347885 
	C183.546494,81.348145 183.773697,81.348404 184.000916,81.348663 
	C184.000916,72.399109 184.000916,63.449554 184.001038,53.500000 
M33.995838,345.655731 
	C33.995838,343.505127 33.995838,341.354523 33.995838,339.203918 
	C33.748844,339.215790 33.501854,339.227661 33.254860,339.239532 
	C33.254860,346.144745 33.254860,353.049957 33.254860,359.955170 
	C33.502739,359.959686 33.750618,359.964203 33.998497,359.968719 
	C33.998497,355.515167 33.998497,351.061615 33.995838,345.655731 
z"/>
<path fill="#0F1011" opacity="1.000000" stroke="none" 
	d="
M275.531342,1.000000 
	C274.277008,1.331902 272.555023,1.946304 270.830872,1.952424 
	C251.560959,2.020816 232.289856,2.089422 213.021255,1.916034 
	C209.157288,1.881265 207.669739,2.882908 207.926056,6.928579 
	C208.259628,12.193330 208.007599,17.495184 206.990631,22.793190 
	C206.990631,15.841201 206.990631,8.889211 206.995316,1.468610 
	C229.687561,1.000000 252.375122,1.000000 275.531342,1.000000 
z"/>
<path fill="#F5F8F9" opacity="1.000000" stroke="none" 
	d="
M91.102295,362.999512 
	C89.825989,362.181580 88.575546,360.708649 87.268982,360.657013 
	C80.995872,360.409271 74.707596,360.545715 67.747360,360.545715 
	C67.747360,347.927643 67.747360,335.424805 67.749405,322.006195 
	C67.679359,315.074432 67.607269,309.058411 67.649994,302.604919 
	C67.689613,299.763214 67.614418,297.359039 67.630310,294.497437 
	C67.652679,268.707611 67.583954,243.375168 67.633888,217.600861 
	C67.672668,214.423447 67.592781,211.687912 67.606628,208.495697 
	C67.614670,200.375244 67.528969,192.711472 67.575737,184.649643 
	C67.613533,183.149002 67.518867,182.046432 67.536636,180.492661 
	C67.583328,174.691391 67.517570,169.341293 67.451813,163.991211 
	C67.451813,160.201859 67.451813,156.412506 67.451813,152.119751 
	C75.395050,152.119751 82.924294,152.119751 91.039680,152.119751 
	C91.039680,149.394028 91.039680,147.142838 91.526466,144.459351 
	C95.078590,144.062698 98.196045,144.474609 101.198807,144.058594 
	C108.245712,143.082336 113.530609,146.174072 113.955559,152.306595 
	C113.987602,153.097809 114.053131,153.547592 114.025818,154.457825 
	C113.892426,161.260147 113.851875,167.602051 113.608810,174.022095 
	C113.151619,174.272263 112.997215,174.509552 112.532440,174.871918 
	C110.746376,175.010056 109.370964,175.088348 107.535873,175.085938 
	C101.780830,175.005234 96.485474,175.005234 91.018860,175.005234 
	C91.018860,229.261581 91.018860,283.210754 91.018860,337.387909 
	C98.523682,337.387909 105.801773,337.387909 112.997192,337.515717 
	C112.914513,337.643524 113.113190,337.874176 113.162933,338.105774 
	C113.364151,338.621490 113.570076,338.858246 113.859802,339.511719 
	C113.948753,345.647675 114.008354,351.319580 113.967270,357.379272 
	C113.966194,358.822418 114.065796,359.877777 113.785858,360.957275 
	C112.619011,361.456726 111.640129,361.768646 111.073761,362.432526 
	C104.761063,369.832092 103.265167,369.972382 95.687668,364.329620 
	C94.492050,363.439301 92.647049,363.420990 91.102295,362.999512 
z"/>
<path fill="#F6F8F8" opacity="1.000000" stroke="none" 
	d="
M392.105225,151.747604 
	C399.094147,151.823639 406.083069,151.899673 413.802673,151.997131 
	C414.708466,151.949677 414.883636,151.880768 415.058777,151.811859 
	C415.117981,152.009766 415.177216,152.207687 414.799316,152.732239 
	C413.241821,153.372772 412.121521,153.686691 410.609253,154.001602 
	C408.160248,155.992966 405.746643,157.761505 404.279572,160.119064 
	C403.878326,160.763824 406.526825,163.071091 407.400513,164.804581 
	C408.469330,166.925232 409.260590,169.209869 409.942383,171.492142 
	C410.329285,172.787354 410.257111,174.219696 410.391663,175.590286 
	C410.681793,175.609009 410.971893,175.627716 411.261993,175.646439 
	C411.507996,175.097626 411.753998,174.548813 412.258728,174.099335 
	C413.383972,174.128342 414.250458,174.058044 415.116974,173.987732 
	C415.212128,188.793961 415.387543,203.600174 415.387543,218.406403 
	C415.387573,264.357086 415.320923,310.307770 415.280304,356.258453 
	C415.279297,357.408813 415.280182,358.559204 415.280182,360.496521 
	C408.019348,360.496521 400.951294,360.496521 393.438629,360.067200 
	C391.158722,354.022278 389.929199,348.235107 383.886688,344.978363 
	C380.864319,343.349365 378.605255,340.304077 376.451416,337.773743 
	C381.862549,337.648163 386.823212,337.648163 392.524841,337.648163 
	C392.524841,317.793091 392.524841,298.396790 392.917755,279.000397 
	C398.441650,279.739594 399.037323,276.247223 398.950867,272.598541 
	C398.774048,265.134766 398.073364,257.676331 398.100037,250.217529 
	C398.115265,245.963120 396.483459,244.499130 392.428223,244.543915 
	C392.396545,239.725647 392.460815,235.363083 392.866669,231.012360 
	C394.264771,232.107407 395.500183,233.070663 396.328583,234.306702 
	C397.198425,235.604584 397.430450,238.129913 398.388489,238.375763 
	C399.727081,238.719254 401.480316,237.446747 403.105042,236.847672 
	C398.276367,230.299179 396.101868,224.387039 396.845367,217.015930 
	C397.920319,206.358917 406.299164,208.574646 412.695557,207.635208 
	C412.277618,203.108124 411.924347,199.281616 411.518860,194.889526 
	C409.681213,196.225464 408.456909,197.115509 406.337372,198.656387 
	C405.789673,195.901398 405.333160,193.925613 405.020844,191.927307 
	C404.791809,190.461746 405.324524,188.195267 404.535217,187.609268 
	C399.221161,183.664154 402.014343,179.074707 403.004272,174.538528 
	C403.290741,173.225769 403.048218,171.797577 403.048218,170.422318 
	C402.428925,170.339874 401.809631,170.257431 401.190338,170.174988 
	C399.031006,174.489380 396.919678,178.829346 394.651581,183.085770 
	C394.368500,183.616974 393.255676,183.706024 392.439270,183.556137 
	C392.267426,180.398270 392.183655,177.684204 392.392242,174.810806 
	C394.050018,172.996292 395.822388,171.518982 396.648773,169.628204 
	C397.280548,168.182739 397.113098,164.829529 396.622650,164.688751 
	C390.531006,162.940247 392.228424,158.088348 392.007629,153.624176 
	C392.045258,152.748093 392.075256,152.247849 392.105225,151.747604 
M410.713348,189.462952 
	C410.601715,190.038559 410.490082,190.614151 410.378448,191.189758 
	C410.787354,191.194931 411.196228,191.200089 411.605133,191.205261 
	C411.507690,190.626923 411.410217,190.048599 410.713348,189.462952 
z"/>
<path fill="#F5F7F8" opacity="1.000000" stroke="none" 
	d="
M44.900658,326.286835 
	C41.130768,326.026306 37.360874,325.765747 33.124352,325.472961 
	C33.124352,318.102448 33.124352,310.702454 33.124352,302.767090 
	C25.277792,302.767090 17.877550,302.767090 10.151857,302.767090 
	C10.151857,271.531616 10.151857,240.837769 10.151857,209.861725 
	C17.605223,209.861725 24.886362,209.861725 32.704163,209.861725 
	C32.704163,202.232376 32.704163,194.849594 32.704163,186.996155 
	C36.506519,186.996155 39.787163,186.996155 43.546036,187.439499 
	C44.350605,190.587952 44.676941,193.293060 44.994244,196.462952 
	C44.988022,201.284470 44.990826,205.641190 44.987556,210.466690 
	C44.985626,240.290970 44.989773,269.646484 44.989525,299.469360 
	C44.987484,305.289703 44.989834,310.642700 44.986855,316.457581 
	C44.954571,320.041931 44.927616,323.164398 44.900658,326.286835 
z"/>
<path fill="#F5F7F8" opacity="1.000000" stroke="none" 
	d="
M439.148865,186.557877 
	C442.634033,186.557877 446.119202,186.557877 450.036621,186.557877 
	C450.036621,194.179596 450.036621,201.599731 450.036621,209.653152 
	C457.985107,209.653152 465.531860,209.653152 473.232971,209.653152 
	C473.232971,240.995728 473.232971,271.695801 473.232971,302.772705 
	C465.535828,302.772705 458.119476,302.772705 450.233765,302.772705 
	C450.233765,310.546143 450.233765,317.952362 450.233765,325.781830 
	C446.475922,325.781830 443.183624,325.781830 439.456299,325.337463 
	C439.006226,321.563690 438.974518,318.234222 438.978699,314.904816 
	C439.032440,272.122498 439.091309,229.340195 439.148865,186.557877 
z"/>
<path fill="#F2F5F7" opacity="1.000000" stroke="none" 
	d="
M392.129639,151.309341 
	C392.075256,152.247849 392.045258,152.748093 391.607574,153.624146 
	C389.188782,153.561676 387.177704,153.123428 385.166626,152.685165 
	C385.084930,152.129166 385.003204,151.573151 384.921478,151.017151 
	C386.914093,149.941086 388.906708,148.865005 390.899292,147.788940 
	C390.485107,147.047745 390.070892,146.306549 389.656677,145.565369 
	C385.187958,145.180725 380.723755,144.560440 376.249298,144.474960 
	C371.366791,144.381668 369.002106,146.874985 369.794556,151.961166 
	C369.572327,151.977173 369.126984,151.962738 368.652588,151.913269 
	C327.560242,151.848038 286.942322,151.806320 246.324417,151.823502 
	C202.212616,151.842163 158.100845,151.915619 113.989052,151.965179 
	C113.530609,146.174072 108.245712,143.082336 101.198807,144.058594 
	C98.196045,144.474609 95.078590,144.062698 91.615326,144.015030 
	C91.156456,143.555588 91.095497,143.108170 91.384781,142.297241 
	C92.156868,141.433167 92.578705,140.932571 93.000542,140.431961 
	C93.448364,140.361832 93.896179,140.291687 94.773560,140.639130 
	C96.802277,140.846497 98.401436,140.636292 100.000603,140.426086 
	C101.157570,140.345825 102.314545,140.195160 103.471504,140.195343 
	C199.015961,140.210739 294.560425,140.237854 390.602173,140.621796 
	C391.378876,141.316650 391.658264,141.653824 391.937622,141.991013 
	C392.009766,144.951035 392.081940,147.911057 392.129639,151.309341 
z"/>
<path fill="#D6DCE2" opacity="1.000000" stroke="none" 
	d="
M390.995117,395.022430 
	C384.669373,395.084473 378.343628,395.198761 372.017853,395.200653 
	C279.362579,395.228394 186.707336,395.241058 94.052071,395.257355 
	C93.224922,395.257477 92.397766,395.257385 90.877899,395.257385 
	C90.877899,392.070282 90.877899,388.987610 91.188065,385.328644 
	C91.756638,384.526978 91.929749,384.248505 92.017555,383.916992 
	C95.669373,383.842041 99.321205,383.701324 102.973015,383.701691 
	C198.675308,383.711060 294.377594,383.735016 390.532288,384.241699 
	C391.363281,385.828156 391.741882,386.929352 392.120483,388.030579 
	C392.204987,389.734039 392.289459,391.437469 392.008545,393.659698 
	C391.427155,394.459808 391.211151,394.741119 390.995117,395.022430 
z"/>
<path fill="#75D6E4" opacity="1.000000" stroke="none" 
	d="
M271.046570,70.491348 
	C269.270081,70.598564 267.493591,70.705788 264.831238,70.910980 
	C260.572784,71.007889 257.200195,71.006828 253.631561,71.110245 
	C253.196884,71.419220 253.062759,71.677956 253.034729,72.460159 
	C253.003799,83.643661 252.971313,94.357956 252.938812,105.072243 
	C245.617401,105.156921 238.295975,105.241608 230.515823,104.720230 
	C230.036285,96.799515 229.985260,89.484795 230.001602,82.170227 
	C230.027390,70.616493 230.046524,70.616539 218.350266,71.004135 
	C214.838165,70.885117 211.326065,70.766106 207.375610,70.075882 
	C206.940460,58.991798 206.943665,48.478920 207.329681,37.815125 
	C211.126999,37.053368 214.541519,36.442528 217.956055,35.831684 
	C217.956055,35.831684 218.064438,35.716679 218.559418,35.759949 
	C221.701813,35.842052 224.349197,35.880882 227.173569,36.182335 
	C228.235138,36.269665 229.119720,36.094372 230.462112,35.918270 
	C234.280090,35.919075 237.640259,35.920689 241.248474,36.215454 
	C243.665451,36.307865 245.834381,36.107121 248.468842,35.906487 
	C253.601212,35.916428 258.268066,35.926254 263.185455,35.874420 
	C263.647736,35.549919 263.859436,35.287083 264.227234,34.960609 
	C264.383331,34.896973 264.705414,34.996487 264.705414,34.996487 
	C264.705414,34.996487 265.037079,35.283600 265.270752,35.855225 
	C269.026062,36.611294 272.547729,36.795742 276.110046,37.448822 
	C276.146393,48.277214 276.142090,58.636978 275.756104,69.000839 
	C273.931854,69.500412 272.489197,69.995880 271.046570,70.491348 
z"/>
<path fill="#F2F5F7" opacity="1.000000" stroke="none" 
	d="
M261.015137,117.107712 
	C262.076538,117.058746 263.137909,117.009781 264.711670,117.410088 
	C268.512024,118.216553 271.799744,118.822449 275.088165,118.825989 
	C276.730652,118.827751 278.374390,117.728745 280.017548,117.127625 
	C285.364685,117.078972 290.711853,117.030312 296.633209,117.418411 
	C300.273895,119.162270 303.328583,120.329025 306.016235,117.116837 
	C307.398987,117.065712 308.781738,117.014580 310.694611,117.412140 
	C311.752594,118.197563 312.278412,118.824310 312.808655,118.828133 
	C323.037598,118.901833 333.267548,118.945221 343.495667,118.839851 
	C344.341431,118.831139 345.175751,117.712540 346.015381,117.109634 
	C346.454803,117.061859 346.894196,117.014084 347.749268,117.376488 
	C349.782166,117.564827 351.399384,117.342987 353.016632,117.121140 
	C362.030823,117.069748 371.044983,117.018364 380.636536,117.407112 
	C384.827454,118.569839 388.440979,119.292442 392.054504,120.015038 
	C392.102356,121.725090 392.150208,123.435143 391.741669,125.758057 
	C389.327148,126.604523 387.369415,127.037361 385.410828,127.041367 
	C361.919739,127.089378 338.428528,127.080757 314.937347,127.073578 
	C240.299454,127.050774 165.661560,127.022308 91.023659,126.996040 
	C90.977089,124.951012 90.930519,122.905975 91.363190,120.345978 
	C95.407486,119.530869 98.992371,119.369904 102.528465,118.866348 
	C104.076057,118.645966 105.523941,117.725395 107.017105,117.122787 
	C110.702698,117.074692 114.388283,117.026604 118.636604,117.410370 
	C121.956192,119.233719 124.690384,120.380310 127.016609,117.118759 
	C127.455421,117.070244 127.894226,117.021721 128.778595,117.421783 
	C129.753662,118.205139 130.281158,118.828323 130.812988,118.832039 
	C141.040268,118.903412 151.268494,118.944748 161.494919,118.837372 
	C162.341080,118.828484 163.175568,117.710587 164.015488,117.107956 
	C177.363617,117.057533 190.711761,117.007118 204.642975,117.406586 
	C212.938126,118.042213 220.650024,118.238411 228.363113,118.358391 
	C228.574112,118.361671 228.797867,117.544380 229.015686,117.109741 
	C229.454956,117.061600 229.894211,117.013458 230.740570,117.361534 
	C232.436996,117.541672 233.726334,117.325592 235.015671,117.109505 
	C236.398788,117.061371 237.781891,117.013245 239.664871,117.376541 
	C242.057831,119.547699 243.744308,119.821457 245.016220,117.113441 
	C247.380386,117.064369 249.744553,117.015297 252.654724,117.398849 
	C255.958496,119.241898 258.691772,120.387512 261.015137,117.107712 
z"/>
<path fill="#D8DCE1" opacity="1.000000" stroke="none" 
	d="
M439.057922,186.134705 
	C439.091309,229.340195 439.032440,272.122498 438.978699,314.904816 
	C438.974518,318.234222 439.006226,321.563690 438.992126,325.348328 
	C438.963013,333.283752 438.963013,340.764008 438.963013,348.644073 
	C435.035309,348.644073 431.336029,348.644073 427.338287,348.644073 
	C427.338287,287.155548 427.338287,225.612778 427.338287,163.766953 
	C430.823120,163.766953 434.238617,163.766953 437.754456,163.766953 
	C438.166565,171.225311 438.566803,178.468430 439.057922,186.134705 
z"/>
<path fill="#010101" opacity="1.000000" stroke="none" 
	d="
M67.515228,218.042740 
	C67.583954,243.375168 67.652679,268.707611 67.285370,294.504272 
	C65.610764,296.124420 64.372185,297.280365 63.133606,298.436310 
	C64.600792,299.971680 66.067986,301.507050 67.535172,303.042389 
	C67.607269,309.058411 67.679359,315.074432 67.646156,321.548553 
	C65.803833,323.042603 64.130440,324.212738 62.311279,325.075531 
	C60.603912,325.885345 58.742409,326.370148 56.483757,326.563019 
	C55.937981,322.428467 55.857162,318.728851 55.858711,314.590332 
	C55.883080,308.102295 55.825073,302.053223 55.856575,295.546692 
	C55.880459,290.724579 55.814842,286.359894 55.835361,281.533936 
	C55.867901,265.383575 55.814301,249.694489 55.851341,233.544968 
	C55.882633,227.388107 55.823292,221.691666 55.854572,215.534698 
	C55.885975,207.719864 55.826756,200.365570 55.862713,192.639343 
	C55.897991,191.507233 55.838093,190.747040 55.862358,189.525864 
	C56.026554,182.043442 56.106590,175.022018 56.186626,168.000580 
	C57.946888,167.344345 59.710419,166.696732 61.466484,166.029465 
	C63.221634,165.362564 64.969315,164.676010 67.086044,163.994629 
	C67.517570,169.341293 67.583328,174.691391 67.220734,180.509003 
	C63.539066,182.888412 65.190125,184.016190 67.443275,185.047699 
	C67.528969,192.711472 67.614670,200.375244 67.246323,208.497482 
	C65.599655,209.619522 64.407028,210.283096 63.214394,210.946655 
	C64.648003,213.312012 66.081619,215.677383 67.515228,218.042740 
z"/>
<path fill="#F5F8F9" opacity="1.000000" stroke="none" 
	d="
M376.000977,337.899353 
	C378.605255,340.304077 380.864319,343.349365 383.886688,344.978363 
	C389.929199,348.235107 391.158722,354.022278 392.993652,359.993896 
	C392.897614,360.513763 392.801910,360.677521 392.045441,360.937744 
	C388.505310,361.146790 385.689697,361.362091 384.625000,365.000458 
	C382.969788,365.472229 381.689636,365.943573 380.409454,366.414886 
	C380.939636,367.276581 381.469818,368.138306 382.000000,369.366119 
	C381.999390,370.464478 381.998779,371.196716 381.998169,371.928955 
	C376.346222,372.007965 370.694275,372.155548 365.042297,372.155731 
	C280.334686,372.158356 195.627060,372.141541 110.546043,371.658569 
	C113.193115,370.186707 116.238029,369.252899 119.227768,368.167145 
	C122.881233,366.840393 126.387573,364.890656 130.143921,364.126282 
	C133.903152,363.361389 137.973495,363.186493 141.756317,363.756348 
	C145.134186,364.265198 148.305786,366.143219 152.236313,367.677856 
	C153.129959,366.535950 153.522385,363.032440 158.334229,364.646210 
	C165.517838,367.055420 173.124451,368.962128 180.648590,369.397278 
	C189.249100,369.894714 197.949997,368.375732 206.619202,368.053436 
	C213.688110,367.790588 220.776047,368.086090 227.852646,367.964417 
	C231.635452,367.899384 235.429428,367.116425 239.187531,367.297424 
	C244.946442,367.574768 250.676422,368.868958 256.422852,368.897736 
	C266.570068,368.948547 276.548767,365.827667 286.896820,367.850494 
	C292.790070,369.002472 298.990601,369.058868 305.028839,368.864899 
	C311.668396,368.651611 318.282440,367.602051 324.903473,366.879242 
	C327.028656,366.647217 329.145691,366.326569 331.257782,365.991760 
	C334.773438,365.434387 338.252045,364.779541 340.412689,360.982056 
	C342.214447,360.952240 343.606384,361.012146 345.050049,361.438965 
	C345.755890,362.492828 346.293304,363.563995 347.083252,363.804047 
	C352.024170,365.305450 357.021393,366.621399 362.428467,367.999084 
	C364.571289,367.999603 366.285645,367.999786 368.259491,368.280029 
	C376.045868,371.219147 374.888672,363.655884 378.458344,360.550964 
	C376.652985,359.517944 375.326477,358.758972 373.732300,357.813904 
	C372.144379,357.078003 370.824219,356.528198 369.416565,355.543427 
	C369.396759,352.748413 369.464478,350.388397 369.827332,348.119324 
	C371.341705,348.178162 373.374115,348.570221 373.648071,348.045013 
	C375.425415,344.637512 373.556732,341.610870 369.473999,340.667114 
	C369.376038,339.932312 369.380066,339.503113 369.565796,338.935791 
	C369.939819,338.536499 370.006073,338.246521 370.027679,337.783844 
	C370.109192,337.639954 369.916901,337.370880 370.345703,337.458954 
	C372.516632,337.664459 374.258820,337.781891 376.000977,337.899353 
z"/>
<path fill="#F1F6FB" opacity="1.000000" stroke="none" 
	d="
M340.002899,361.071777 
	C338.252045,364.779541 334.773438,365.434387 331.257782,365.991760 
	C329.145691,366.326569 327.028656,366.647217 324.903473,366.879242 
	C318.282440,367.602051 311.668396,368.651611 305.028839,368.864899 
	C298.990601,369.058868 292.790070,369.002472 286.896820,367.850494 
	C276.548767,365.827667 266.570068,368.948547 256.422852,368.897736 
	C250.676422,368.868958 244.946442,367.574768 239.187531,367.297424 
	C235.429428,367.116425 231.635452,367.899384 227.852646,367.964417 
	C220.776047,368.086090 213.688110,367.790588 206.619202,368.053436 
	C197.949997,368.375732 189.249100,369.894714 180.648590,369.397278 
	C173.124451,368.962128 165.517838,367.055420 158.334229,364.646210 
	C153.522385,363.032440 153.129959,366.535950 152.236313,367.677856 
	C148.305786,366.143219 145.134186,364.265198 141.756317,363.756348 
	C137.973495,363.186493 133.903152,363.361389 130.143921,364.126282 
	C126.387573,364.890656 122.881233,366.840393 119.227768,368.167145 
	C116.238029,369.252899 113.193115,370.186707 110.086655,371.559418 
	C104.303795,372.001587 98.606934,372.072205 92.355392,371.840820 
	C91.625923,371.289825 91.395653,371.112976 91.109901,371.008362 
	C91.045029,368.630035 90.980156,366.251740 91.008789,363.436462 
	C92.647049,363.420990 94.492050,363.439301 95.687668,364.329620 
	C103.265167,369.972382 104.761063,369.832092 111.073761,362.432526 
	C111.640129,361.768646 112.619011,361.456726 114.243149,360.934692 
	C175.730804,360.884308 236.381607,360.868317 297.032410,360.885803 
	C311.355896,360.889954 325.679413,361.006775 340.002899,361.071777 
z"/>
<path fill="#EDF3F5" opacity="1.000000" stroke="none" 
	d="
M241.000443,35.922302 
	C237.640259,35.920689 234.280090,35.919075 230.261826,35.704922 
	C228.734695,35.634827 227.865646,35.777267 226.996597,35.919712 
	C224.349197,35.880882 221.701813,35.842052 218.635757,35.780361 
	C218.217102,28.278555 218.217102,20.799610 218.217102,12.882905 
	C233.741669,12.882905 248.924011,12.882905 264.782745,12.882905 
	C264.782745,19.890318 264.782745,26.973238 264.744080,34.526321 
	C264.705414,34.996487 264.383331,34.896973 264.001038,35.064442 
	C263.328705,35.406384 263.100769,35.641106 262.934906,35.936081 
	C258.268066,35.926254 253.601212,35.916428 248.187271,35.667450 
	C245.293594,35.592972 243.147018,35.757637 241.000443,35.922302 
z"/>
<path fill="#DADBDB" opacity="1.000000" stroke="none" 
	d="
M90.997025,127.418762 
	C165.661560,127.022308 240.299454,127.050774 314.937347,127.073578 
	C338.428528,127.080757 361.919739,127.089378 385.410828,127.041367 
	C387.369415,127.037361 389.327148,126.604523 391.662170,126.179230 
	C392.920502,129.799683 389.956940,128.587311 388.354736,128.594391 
	C371.367706,128.669449 354.380219,128.631683 337.392853,128.635727 
	C256.786194,128.654938 176.179550,128.682281 95.572914,128.663147 
	C94.038673,128.662781 92.504555,128.127304 90.997025,127.418762 
z"/>
<path fill="#EBF4F6" opacity="1.000000" stroke="none" 
	d="
M206.946884,37.966042 
	C206.943665,48.478920 206.940460,58.991798 206.926025,69.930527 
	C203.144516,70.356369 199.374222,70.356369 195.350647,70.356369 
	C195.350647,58.995789 195.350647,47.741810 195.350647,35.813622 
	C198.878387,35.813622 202.459000,35.813622 206.485580,36.249397 
	C206.936661,37.112133 206.941772,37.539085 206.946884,37.966042 
z"/>
<path fill="#F0F7F9" opacity="1.000000" stroke="none" 
	d="
M276.137756,68.996742 
	C276.142090,58.636978 276.146393,48.277214 276.123596,37.225384 
	C276.096466,36.533318 276.099731,36.085285 276.099731,36.085285 
	C279.898621,36.085285 283.697510,36.085285 287.803955,36.085285 
	C287.803955,47.325321 287.803955,58.708244 287.803955,70.728966 
	C284.511139,70.728966 281.241577,70.728966 277.526306,70.397324 
	C276.766357,69.709373 276.452057,69.353058 276.137756,68.996742 
z"/>
<path fill="#EDF5F5" opacity="1.000000" stroke="none" 
	d="
M253.827621,71.005768 
	C257.200195,71.006828 260.572784,71.007889 264.396667,71.019829 
	C264.847961,82.250305 264.847961,93.469902 264.847961,105.294632 
	C260.993927,105.294632 257.425049,105.294632 253.397491,105.183441 
	C252.971313,94.357956 253.003799,83.643661 253.222931,72.345093 
	C253.649628,71.564888 253.788971,71.313210 253.827621,71.005768 
z"/>
<path fill="#F3FAFA" opacity="1.000000" stroke="none" 
	d="
M218.358307,71.470825 
	C230.046524,70.616539 230.027390,70.616493 230.001602,82.170227 
	C229.985260,89.484795 230.036285,96.799515 230.068726,104.586212 
	C226.456802,105.058258 222.833267,105.058258 218.366364,105.058258 
	C218.366364,94.020035 218.366364,82.978775 218.358307,71.470825 
z"/>
<path fill="#D1D5DB" opacity="1.000000" stroke="none" 
	d="
M55.776344,315.029236 
	C55.857162,318.728851 55.937981,322.428467 56.107513,326.563782 
	C56.073803,334.208649 55.951374,341.417847 55.290054,348.337891 
	C51.443001,347.686432 48.134846,347.324097 44.826691,346.961792 
	C44.770557,340.360535 44.714420,333.759308 44.779472,326.722443 
	C44.927616,323.164398 44.954571,320.041931 45.377338,316.458923 
	C47.172794,315.667450 48.951836,315.761932 49.895676,314.920044 
	C52.079819,312.971863 53.847042,313.676575 55.776344,315.029236 
z"/>
<path fill="#DCDFE5" opacity="1.000000" stroke="none" 
	d="
M56.100178,167.555710 
	C56.106590,175.022018 56.026554,182.043442 55.504402,189.518372 
	C51.674675,188.316986 48.287071,186.662094 44.899467,185.007217 
	C44.931358,178.644150 44.963253,172.281082 45.360054,165.310089 
	C46.729824,164.245529 47.734680,163.788895 48.739536,163.332260 
	C50.179882,163.425949 51.640141,163.715866 53.056404,163.572174 
	C55.945251,163.279083 56.226238,164.934402 56.100178,167.555710 
z"/>
<path fill="#5E5F5C" opacity="1.000000" stroke="none" 
	d="
M294.001740,105.986778 
	C288.040283,105.985298 282.578339,105.985298 277.116364,105.985298 
	C277.118713,105.754135 277.121033,105.522972 277.123383,105.291809 
	C319.195740,105.291809 361.268097,105.291809 403.340454,105.291809 
	C403.341675,105.523956 403.342865,105.756111 403.344086,105.988258 
	C367.063141,105.988258 330.782166,105.988258 294.001740,105.986778 
z"/>
<path fill="#5E5F5C" opacity="1.000000" stroke="none" 
	d="
M129.000000,105.004761 
	C155.078384,105.004669 180.656769,105.004669 206.235153,105.004669 
	C206.233994,105.253662 206.232834,105.502663 206.231674,105.751656 
	C164.378738,105.751656 122.525810,105.751656 80.672882,105.751656 
	C80.671387,105.502724 80.669884,105.253784 80.668388,105.004852 
	C96.612259,105.004852 112.556129,105.004852 129.000000,105.004761 
z"/>
<path fill="#D1D5DB" opacity="1.000000" stroke="none" 
	d="
M44.767532,185.259323 
	C48.287071,186.662094 51.674675,188.316986 55.420238,189.979370 
	C55.838093,190.747040 55.897991,191.507233 55.499680,192.653320 
	C51.695404,194.025528 48.349339,195.011841 45.003273,195.998169 
	C44.676941,193.293060 44.350605,190.587952 44.009369,187.458069 
	C44.208176,186.526016 44.421883,186.018723 44.767532,185.259323 
z"/>
<path fill="#EFF3F6" opacity="1.000000" stroke="none" 
	d="
M382.439697,372.028259 
	C381.998779,371.196716 381.999390,370.464478 382.296478,369.222534 
	C383.395325,367.475220 384.197662,366.237610 385.000000,365.000000 
	C385.689697,361.362091 388.505310,361.146790 391.784943,361.052246 
	C392.211914,364.086426 392.238647,367.102478 391.928406,370.657593 
	C391.314270,371.379730 391.119110,371.627441 391.005920,371.939758 
	C388.297668,372.002380 385.589447,372.064972 382.439697,372.028259 
z"/>
<path fill="#DADBDB" opacity="1.000000" stroke="none" 
	d="
M163.555542,117.006027 
	C163.175568,117.710587 162.341080,118.828484 161.494919,118.837372 
	C151.268494,118.944748 141.040268,118.903412 130.812988,118.832039 
	C130.281158,118.828323 129.753662,118.205139 129.103821,117.493767 
	C140.354202,117.046150 151.724899,116.975121 163.555542,117.006027 
z"/>
<path fill="#DADBDB" opacity="1.000000" stroke="none" 
	d="
M345.555420,117.007996 
	C345.175751,117.712540 344.341431,118.831139 343.495667,118.839851 
	C333.267548,118.945221 323.037598,118.901833 312.808655,118.828133 
	C312.278412,118.824310 311.752594,118.197563 311.104553,117.483833 
	C322.354706,117.040016 333.725098,116.973183 345.555420,117.007996 
z"/>
<path fill="#F2F5F7" opacity="1.000000" stroke="none" 
	d="
M411.001221,154.000610 
	C412.121521,153.686691 413.241821,153.372772 414.712860,153.029846 
	C415.162842,159.693848 415.262085,166.386871 415.239136,173.533813 
	C414.250458,174.058044 413.383972,174.128342 412.258728,173.644928 
	C411.667084,166.727661 411.334137,160.364136 411.001221,154.000610 
z"/>
<path fill="#FEFFFF" opacity="1.000000" stroke="none" 
	d="
M184.000977,54.000000 
	C184.000916,63.449554 184.000916,72.399109 184.000916,81.348663 
	C183.773697,81.348404 183.546494,81.348145 183.319275,81.347885 
	C183.319275,62.784561 183.319275,44.221237 183.319275,25.657913 
	C183.546524,25.652538 183.773788,25.647161 184.001038,25.641785 
	C184.001038,34.927856 184.001038,44.213928 184.000977,54.000000 
z"/>
<path fill="#DADBDB" opacity="1.000000" stroke="none" 
	d="
M228.555695,117.008194 
	C228.797867,117.544380 228.574112,118.361671 228.363113,118.358391 
	C220.650024,118.238411 212.938126,118.042213 205.105713,117.479462 
	C212.688812,117.037178 220.392242,116.971924 228.555695,117.008194 
z"/>
<path fill="#DADBDB" opacity="1.000000" stroke="none" 
	d="
M106.558350,117.020454 
	C105.523941,117.725395 104.076057,118.645966 102.528465,118.866348 
	C98.992371,119.369904 95.407486,119.530869 91.434242,119.912689 
	C90.259766,117.562027 91.169716,116.741089 93.665810,116.840462 
	C97.804878,117.005234 101.954445,116.906090 106.558350,117.020454 
z"/>
<path fill="#DADBDB" opacity="1.000000" stroke="none" 
	d="
M279.559906,117.025772 
	C278.374390,117.728745 276.730652,118.827751 275.088165,118.825989 
	C271.799744,118.822449 268.512024,118.216553 265.104614,117.483307 
	C269.690918,117.046143 274.396576,116.985031 279.559906,117.025772 
z"/>
<path fill="#DADBDB" opacity="1.000000" stroke="none" 
	d="
M392.178986,119.690559 
	C388.440979,119.292442 384.827454,118.569839 381.099335,117.479324 
	C383.937347,117.035126 386.905334,116.766190 389.833252,116.999695 
	C390.713989,117.069954 391.483185,118.538239 392.178986,119.690559 
z"/>
<path fill="#0F1011" opacity="1.000000" stroke="none" 
	d="
M33.997169,346.131897 
	C33.998497,351.061615 33.998497,355.515167 33.998497,359.968719 
	C33.750618,359.964203 33.502739,359.959686 33.254860,359.955170 
	C33.254860,353.049957 33.254860,346.144745 33.254860,339.239532 
	C33.501854,339.227661 33.748844,339.215790 33.995838,339.203918 
	C33.995838,341.354523 33.995838,343.505127 33.997169,346.131897 
z"/>
<path fill="#101212" opacity="1.000000" stroke="none" 
	d="
M414.839355,150.866104 
	C414.839355,143.875961 414.839355,136.885818 414.839355,129.895676 
	C415.149811,129.899719 415.460236,129.903748 415.770691,129.907776 
	C415.770691,136.776337 415.770691,143.644882 415.404388,150.773712 
	C415.038086,151.033981 414.839355,150.866104 414.839355,150.866104 
z"/>
<path fill="#EDF3F5" opacity="1.000000" stroke="none" 
	d="
M44.745041,347.231812 
	C48.134846,347.324097 51.443001,347.686432 54.860058,348.422333 
	C52.277828,348.853668 49.586697,348.911438 46.317059,348.704742 
	C45.510689,348.193115 45.229595,348.051758 44.895267,348.016266 
	C44.817974,347.844788 44.740681,347.673340 44.745041,347.231812 
z"/>
<path fill="#DADBDB" opacity="1.000000" stroke="none" 
	d="
M305.573486,117.016586 
	C303.328583,120.329025 300.273895,119.162270 297.094727,117.490646 
	C299.698242,117.056206 302.414520,116.986267 305.573486,117.016586 
z"/>
<path fill="#DADBDB" opacity="1.000000" stroke="none" 
	d="
M126.579514,117.017532 
	C124.690384,120.380310 121.956192,119.233719 119.090958,117.483353 
	C121.369194,117.055077 123.755798,116.985687 126.579514,117.017532 
z"/>
<path fill="#DADBDB" opacity="1.000000" stroke="none" 
	d="
M260.578186,117.006775 
	C258.691772,120.387512 255.958496,119.241898 253.092407,117.471939 
	C255.369812,117.043556 257.755524,116.974701 260.578186,117.006775 
z"/>
<path fill="#A6D4DA" opacity="1.000000" stroke="none" 
	d="
M275.756134,69.000839 
	C276.452057,69.353058 276.766357,69.709373 277.079926,70.309326 
	C275.348511,70.601692 273.617798,70.650398 271.466827,70.595230 
	C272.489197,69.995880 273.931854,69.500412 275.756134,69.000839 
z"/>
<path fill="#A6D4DA" opacity="1.000000" stroke="none" 
	d="
M207.329681,37.815125 
	C206.941772,37.539085 206.936661,37.112133 206.933563,36.364357 
	C210.304901,35.963097 213.674225,35.882660 217.499817,35.816956 
	C214.541519,36.442528 211.126999,37.053368 207.329681,37.815125 
z"/>
<path fill="#A6D4DA" opacity="1.000000" stroke="none" 
	d="
M275.646240,35.968796 
	C276.099731,36.085285 276.096466,36.533318 276.082916,36.756756 
	C272.547729,36.795742 269.026062,36.611294 265.282288,36.074249 
	C268.437683,35.765205 271.815216,35.808754 275.646240,35.968796 
z"/>
<path fill="#DADBDB" opacity="1.000000" stroke="none" 
	d="
M352.605835,117.018135 
	C351.399384,117.342987 349.782166,117.564827 348.074799,117.448799 
	C349.388123,117.045662 350.791565,116.980392 352.605835,117.018135 
z"/>
<path fill="#F5F8F9" opacity="1.000000" stroke="none" 
	d="
M99.592430,140.322815 
	C98.401436,140.636292 96.802277,140.846497 95.101669,140.742477 
	C96.394913,140.358688 97.789581,140.289124 99.592430,140.322815 
z"/>
<path fill="#DADBDB" opacity="1.000000" stroke="none" 
	d="
M244.605103,117.011734 
	C243.744308,119.821457 242.057831,119.547699 240.074600,117.449905 
	C241.387650,117.044556 242.790817,116.977295 244.605103,117.011734 
z"/>
<path fill="#0F1011" opacity="1.000000" stroke="none" 
	d="
M48.458641,163.179688 
	C47.734680,163.788895 46.729824,164.245529 45.358253,164.840088 
	C46.053608,164.327713 47.115673,163.677414 48.458641,163.179688 
z"/>
<path fill="#DADBDB" opacity="1.000000" stroke="none" 
	d="
M234.620209,117.007858 
	C233.726334,117.325592 232.436996,117.541672 231.066055,117.433777 
	C232.064545,117.041939 233.144653,116.974068 234.620209,117.007858 
z"/>
<path fill="#E7E9EC" opacity="1.000000" stroke="none" 
	d="
M392.227600,387.622498 
	C391.741882,386.929352 391.363281,385.828156 390.989838,384.349731 
	C391.441559,385.053192 391.888123,386.133820 392.227600,387.622498 
z"/>
<path fill="#F5F8F9" opacity="1.000000" stroke="none" 
	d="
M92.688766,140.338867 
	C92.578705,140.932571 92.156868,141.433167 91.468353,141.965897 
	C91.593452,141.413940 91.985222,140.829865 92.688766,140.338867 
z"/>
<path fill="#FEFFFF" opacity="1.000000" stroke="none" 
	d="
M392.020294,141.713348 
	C391.658264,141.653824 391.378876,141.316650 391.054596,140.752487 
	C391.374115,140.828888 391.738525,141.132278 392.020294,141.713348 
z"/>
<path fill="#E7E9EC" opacity="1.000000" stroke="none" 
	d="
M391.333649,395.053406 
	C391.211151,394.741119 391.427155,394.459808 391.893036,394.072632 
	C391.985992,394.339294 391.829102,394.711823 391.333649,395.053406 
z"/>
<path fill="#E7E9EC" opacity="1.000000" stroke="none" 
	d="
M91.701233,383.892273 
	C91.929749,384.248505 91.756638,384.526978 91.279526,384.871033 
	C91.168854,384.615631 91.276878,384.241547 91.701233,383.892273 
z"/>
<path fill="#F6F8F8" opacity="1.000000" stroke="none" 
	d="
M391.316650,371.984314 
	C391.119110,371.627441 391.314270,371.379730 391.809143,371.095917 
	C391.893677,371.339752 391.760529,371.684326 391.316650,371.984314 
z"/>
<path fill="#F5F8F9" opacity="1.000000" stroke="none" 
	d="
M91.061295,371.299316 
	C91.395653,371.112976 91.625923,371.289825 91.897087,371.737213 
	C91.666550,371.820465 91.339622,371.705383 91.061295,371.299316 
z"/>
<path fill="#D1D5DB" opacity="1.000000" stroke="none" 
	d="
M44.891136,348.325623 
	C45.229595,348.051758 45.510689,348.193115 45.872101,348.639893 
	C45.632767,348.771301 45.259884,348.703125 44.891136,348.325623 
z"/>
<path fill="#101212" opacity="1.000000" stroke="none" 
	d="
M415.109070,151.658813 
	C414.883636,151.880768 414.708466,151.949677 414.266418,151.926453 
	C414.108521,151.559540 414.277771,151.329025 414.673340,151.004440 
	C414.839355,150.866104 415.038086,151.033981 415.141602,151.114594 
	C415.245148,151.195190 415.159363,151.505753 415.109070,151.658813 
z"/>
<path fill="#10203E" opacity="1.000000" stroke="none" 
	d="
M113.811310,173.943939 
	C113.851875,167.602051 113.892426,161.260147 114.432693,154.397919 
	C116.717293,153.586731 118.502045,153.042450 120.287086,153.041504 
	C201.153824,152.998825 282.020630,153.036835 362.887177,152.911285 
	C367.200134,152.904587 368.178772,154.341431 368.104858,158.342407 
	C368.008606,163.551880 368.672638,168.775406 369.061462,173.881653 
	C369.113403,173.770432 369.351746,173.829269 369.372314,174.224365 
	C370.946899,174.697678 372.500854,174.775879 374.517792,174.889420 
	C380.319550,174.994598 385.658356,175.064438 390.993042,175.594238 
	C390.992126,225.954361 390.996033,275.854553 390.997925,325.754730 
	C390.998322,336.007629 390.992828,335.890259 380.830597,336.070129 
	C377.186157,336.134613 373.554443,336.916443 369.916901,337.370911 
	C369.916901,337.370880 370.109192,337.639954 369.794342,337.724670 
	C369.479492,337.809418 369.045898,338.018982 368.757111,338.316528 
	C368.326508,343.250610 368.115509,347.886292 368.059509,352.523834 
	C367.980743,359.047638 368.029907,359.054474 361.589081,359.054626 
	C281.704437,359.056580 201.819778,359.076202 121.935287,358.970154 
	C119.311974,358.966644 116.690361,357.679993 114.067955,356.991486 
	C114.008354,351.319580 113.948753,345.647675 113.943153,339.223022 
	C113.702499,338.271606 113.407845,338.072906 113.113190,337.874176 
	C113.113190,337.874176 112.914513,337.643524 112.799530,337.193665 
	C107.761604,336.495880 102.813110,335.824097 97.922867,336.118774 
	C92.993484,336.415833 91.884140,334.660248 91.900581,329.941711 
	C92.068413,281.793030 91.977638,233.643463 92.017578,185.494186 
	C92.025757,175.642242 90.803787,177.274857 100.474472,176.919861 
	C102.999550,176.827179 105.489487,175.777054 107.995560,175.166656 
	C109.370964,175.088348 110.746376,175.010056 112.813751,174.920715 
	C113.607590,174.587753 113.709450,174.265854 113.811310,173.943939 
M209.141861,337.728912 
	C209.486343,337.629425 209.830826,337.529938 211.051483,337.388855 
	C226.652359,337.395599 242.253250,337.402313 258.587402,337.794861 
	C263.105896,337.658661 267.624420,337.522461 272.787628,337.353394 
	C273.210693,337.282379 273.633728,337.211395 274.386932,337.378143 
	C274.677002,337.414124 274.897705,337.557129 275.237274,338.212250 
	C275.535858,338.016479 275.834473,337.820709 276.290161,336.893127 
	C276.331573,330.833130 276.270660,324.769562 276.483704,318.715607 
	C276.539490,317.129272 277.445679,315.572845 278.896149,314.126740 
	C285.273773,314.057709 291.651398,313.988678 298.828003,313.897400 
	C299.179657,306.393433 299.531342,298.889465 299.885864,291.324463 
	C291.515533,291.324463 283.992706,291.324463 275.951721,291.324463 
	C275.951721,299.087616 275.951721,306.472321 275.951721,314.115173 
	C273.444885,314.115173 271.466187,314.114960 269.487488,314.115204 
	C250.028885,314.117737 230.570038,314.083130 211.112183,314.203796 
	C209.767609,314.212128 208.430222,315.377350 206.962280,316.799805 
	C207.019638,317.868317 207.076996,318.936859 206.972488,320.795410 
	C207.019318,321.866089 207.066147,322.936737 206.950775,324.748566 
	C207.003510,325.501373 207.056244,326.254150 206.971359,327.895264 
	C207.005386,330.590759 207.039398,333.286285 207.062805,336.688019 
	C207.663300,336.852692 208.263779,337.017334 208.778885,337.317688 
	C208.778885,337.317688 208.866898,337.451630 209.141861,337.728912 
M189.359360,291.031006 
	C188.909805,291.075439 188.460251,291.119873 187.221756,290.997223 
	C181.431732,290.449310 183.988022,294.437988 183.811203,297.751984 
	C183.857666,298.496002 183.904129,299.239990 183.706146,300.747009 
	C184.127426,305.142120 184.548721,309.537262 185.903549,314.056488 
	C192.277191,314.014801 198.650848,313.973083 205.905121,314.004730 
	C206.254044,313.199554 206.902115,312.395081 206.904053,311.589050 
	C206.918213,305.715454 206.802414,299.841522 206.903091,293.223877 
	C205.941345,292.542786 204.979614,291.861664 203.162170,291.037964 
	C201.430817,291.093536 199.699478,291.149109 197.099487,291.034943 
	C194.741592,291.080750 192.383698,291.126556 189.359360,291.031006 
M299.715057,210.579330 
	C299.797943,218.065796 299.880829,225.552277 300.026642,233.054031 
	C300.026642,233.054031 300.078217,233.014908 299.131256,233.035889 
	C291.606873,233.035889 284.082489,233.035889 276.023712,233.035889 
	C276.023712,237.473831 276.023712,241.243973 275.270996,245.164886 
	C273.680786,247.641403 272.486633,250.074249 276.177979,252.723831 
	C276.158844,253.728043 276.139709,254.732269 276.183105,256.571289 
	C276.633209,256.999786 277.077454,257.794525 277.534302,257.801849 
	C284.335968,257.910645 291.140594,257.978790 297.940186,257.841248 
	C298.583038,257.828247 299.196625,256.369385 299.661713,255.073151 
	C299.707764,254.725311 299.753815,254.377472 300.461700,253.492889 
	C300.241760,248.321762 300.021851,243.150620 299.641418,237.315994 
	C299.695709,236.867355 299.750000,236.418701 300.666138,235.889450 
	C312.221924,235.617233 323.777710,235.254623 335.333588,235.250275 
	C336.225159,235.249939 337.759735,237.712708 337.886993,239.130142 
	C338.241272,243.075851 337.855347,247.083603 338.098755,251.046127 
	C338.181671,252.395782 339.267822,253.683807 340.034912,255.430801 
	C340.034912,255.430801 340.050568,255.883286 340.165802,256.704254 
	C347.832458,258.774414 355.465088,259.240479 363.274963,255.281876 
	C363.274963,248.024323 363.274963,240.766769 363.274963,233.037170 
	C355.153717,233.037170 347.554169,233.037170 340.107880,232.108871 
	C340.026398,227.055954 339.944946,222.003052 340.026550,216.079773 
	C340.028931,214.003998 340.031311,211.928207 339.782928,209.093750 
	C339.100311,208.734268 338.419464,208.065308 337.734802,208.061386 
	C326.038605,207.994125 314.341614,207.973801 302.645966,208.075531 
	C301.743988,208.083359 300.850586,209.077606 299.715057,210.579330 
M206.581497,233.340134 
	C199.061249,233.218765 191.540985,233.097397 183.793289,232.065094 
	C183.606369,224.540878 183.419449,217.016663 182.700256,208.739624 
	C182.257431,208.529633 181.815659,208.138596 181.371643,208.136047 
	C169.552383,208.068054 157.732498,207.994003 145.914108,208.090729 
	C144.944260,208.098648 143.984299,209.314911 143.062057,210.910034 
	C143.049454,218.270584 143.036850,225.631119 142.087296,233.039520 
	C134.816437,233.039520 127.545563,233.039520 120.071747,233.039520 
	C120.071747,240.951431 120.071747,248.338394 120.071747,255.754822 
	C127.862915,255.754822 135.375732,255.754822 142.939819,255.754822 
	C142.939819,247.858871 142.939819,240.384201 143.876221,233.045517 
	C157.288376,232.994049 170.700546,232.942581 183.843552,233.820633 
	C183.816940,239.960434 183.721527,246.101334 183.820343,252.239105 
	C183.840698,253.503281 184.585678,254.755814 185.675766,256.137695 
	C186.130234,256.084503 186.584717,256.031281 187.891235,256.141937 
	C189.910675,256.084930 191.930099,256.027893 194.643112,256.127136 
	C195.111282,256.074860 195.579437,256.022614 196.852707,256.139648 
	C198.218384,256.080750 199.584061,256.021820 201.711670,256.120056 
	C202.483795,256.064667 203.255920,256.009277 204.753601,256.124054 
	C205.495560,256.073517 206.237534,256.023010 207.477081,256.456116 
	C207.972855,256.009949 208.892868,255.570724 208.900330,255.116486 
	C209.002701,248.891800 209.047272,242.663467 208.904404,236.440689 
	C208.885544,235.618866 207.752609,234.822617 206.581497,233.340134 
z"/>
<path fill="#25324C" opacity="1.000000" stroke="none" 
	d="
M113.967270,357.379272 
	C116.690361,357.679993 119.311974,358.966644 121.935287,358.970154 
	C201.819778,359.076202 281.704437,359.056580 361.589081,359.054626 
	C368.029907,359.054474 367.980743,359.047638 368.059509,352.523834 
	C368.115509,347.886292 368.326508,343.250610 368.799377,338.593811 
	C369.215027,338.740356 369.299561,338.907166 369.384094,339.073944 
	C369.380066,339.503113 369.376038,339.932312 369.364502,341.097626 
	C369.415375,343.898621 369.473755,345.963501 369.532166,348.028351 
	C369.464478,350.388397 369.396759,352.748413 369.326416,355.953247 
	C369.175629,358.178711 369.027466,359.559418 368.418884,360.913422 
	C360.305084,360.948517 352.651703,361.010284 344.998352,361.072052 
	C343.606384,361.012146 342.214447,360.952240 340.412689,360.982056 
	C325.679413,361.006775 311.355896,360.889954 297.032410,360.885803 
	C236.381607,360.868317 175.730804,360.884308 114.622696,360.910614 
	C114.065796,359.877777 113.966194,358.822418 113.967270,357.379272 
z"/>
<path fill="#091424" opacity="1.000000" stroke="none" 
	d="
M369.009521,173.992874 
	C368.672638,168.775406 368.008606,163.551880 368.104858,158.342407 
	C368.178772,154.341431 367.200134,152.904587 362.887177,152.911285 
	C282.020630,153.036835 201.153824,152.998825 120.287086,153.041504 
	C118.502045,153.042450 116.717293,153.586731 114.525536,153.937469 
	C114.053131,153.547592 113.987602,153.097809 113.955559,152.306595 
	C158.100845,151.915619 202.212616,151.842163 246.324417,151.823502 
	C286.942322,151.806320 327.560242,151.848038 368.697449,152.333862 
	C369.293182,154.204147 369.369690,155.604385 369.343048,157.461304 
	C369.163116,163.276276 369.086304,168.634567 369.009521,173.992874 
z"/>
<path fill="#061226" opacity="1.000000" stroke="none" 
	d="
M107.535873,175.085938 
	C105.489487,175.777054 102.999550,176.827179 100.474472,176.919861 
	C90.803787,177.274857 92.025757,175.642242 92.017578,185.494186 
	C91.977638,233.643463 92.068413,281.793030 91.900581,329.941711 
	C91.884140,334.660248 92.993484,336.415833 97.922867,336.118774 
	C102.813110,335.824097 107.761604,336.495880 112.882210,337.065857 
	C105.801773,337.387909 98.523682,337.387909 91.018860,337.387909 
	C91.018860,283.210754 91.018860,229.261581 91.018860,175.005234 
	C96.485474,175.005234 101.780830,175.005234 107.535873,175.085938 
z"/>
<path fill="#141615" opacity="1.000000" stroke="none" 
	d="
M67.633896,217.600861 
	C66.081619,215.677383 64.648003,213.312012 63.214394,210.946655 
	C64.407028,210.283096 65.599655,209.619522 67.152588,208.954163 
	C67.592781,211.687912 67.672668,214.423447 67.633896,217.600861 
z"/>
<path fill="#141615" opacity="1.000000" stroke="none" 
	d="
M67.649994,302.604919 
	C66.067986,301.507050 64.600792,299.971680 63.133606,298.436310 
	C64.372185,297.280365 65.610764,296.124420 67.194275,294.961670 
	C67.614418,297.359039 67.689613,299.763214 67.649994,302.604919 
z"/>
<path fill="#141615" opacity="1.000000" stroke="none" 
	d="
M67.575737,184.649643 
	C65.190125,184.016190 63.539066,182.888412 67.108292,180.960205 
	C67.518867,182.046432 67.613533,183.149002 67.575737,184.649643 
z"/>
<path fill="#B3B9C3" opacity="1.000000" stroke="none" 
	d="
M113.608803,174.022095 
	C113.709450,174.265854 113.607590,174.587753 113.224411,174.860886 
	C112.997215,174.509552 113.151619,174.272263 113.608803,174.022095 
z"/>
<path fill="#B3B9C3" opacity="1.000000" stroke="none" 
	d="
M113.162933,338.105774 
	C113.407845,338.072906 113.702499,338.271606 113.913803,338.758972 
	C113.570076,338.858246 113.364151,338.621490 113.162933,338.105774 
z"/>
<path fill="#F5F8F9" opacity="1.000000" stroke="none" 
	d="
M369.061462,173.881653 
	C369.086304,168.634567 369.163116,163.276276 369.738464,157.459702 
	C370.881989,156.998611 371.670715,157.233734 372.144531,156.947540 
	C373.468994,156.147491 374.663147,155.131775 375.908752,154.201172 
	C374.589417,153.466827 373.304230,152.657211 371.933777,152.035477 
	C371.392548,151.789902 370.661407,151.962814 370.016754,151.945160 
	C369.002106,146.874985 371.366791,144.381668 376.249298,144.474960 
	C380.723755,144.560440 385.187958,145.180725 389.656677,145.565369 
	C390.070892,146.306549 390.485107,147.047745 390.899292,147.788940 
	C388.906708,148.865005 386.914093,149.941086 384.921478,151.017151 
	C385.003204,151.573151 385.084930,152.129166 385.166626,152.685165 
	C387.177704,153.123428 389.188782,153.561676 391.599915,153.999969 
	C392.228424,158.088348 390.531006,162.940247 396.622650,164.688751 
	C397.113098,164.829529 397.280548,168.182739 396.648773,169.628204 
	C395.822388,171.518982 394.050018,172.996292 392.111206,174.815887 
	C391.357605,175.031631 391.177368,175.082947 390.997162,175.134277 
	C385.658356,175.064438 380.319550,174.994598 374.493835,174.722000 
	C374.006958,174.519241 373.966583,174.183411 373.804443,173.892487 
	C372.465332,173.649475 371.288330,173.697403 369.917725,173.732452 
	C369.724091,173.719574 369.351746,173.829269 369.351746,173.829269 
	C369.351746,173.829269 369.113403,173.770432 369.061462,173.881653 
z"/>
<path fill="#F5F8F9" opacity="1.000000" stroke="none" 
	d="
M392.527313,183.999954 
	C393.255676,183.706024 394.368500,183.616974 394.651581,183.085770 
	C396.919678,178.829346 399.031006,174.489380 401.190338,170.174988 
	C401.809631,170.257431 402.428925,170.339874 403.048218,170.422318 
	C403.048218,171.797577 403.290741,173.225769 403.004272,174.538528 
	C402.014343,179.074707 399.221161,183.664154 404.535217,187.609268 
	C405.324524,188.195267 404.791809,190.461746 405.020844,191.927307 
	C405.333160,193.925613 405.789673,195.901398 406.337372,198.656387 
	C408.456909,197.115509 409.681213,196.225464 411.518860,194.889526 
	C411.924347,199.281616 412.277618,203.108124 412.695557,207.635208 
	C406.299164,208.574646 397.920319,206.358917 396.845367,217.015930 
	C396.101868,224.387039 398.276367,230.299179 403.105042,236.847672 
	C401.480316,237.446747 399.727081,238.719254 398.388489,238.375763 
	C397.430450,238.129913 397.198425,235.604584 396.328583,234.306702 
	C395.500183,233.070663 394.264771,232.107407 392.773193,230.552338 
	C392.439789,219.058258 392.541473,208.036041 392.981201,196.995239 
	C394.530396,195.667160 396.986511,193.910721 396.708374,193.136032 
	C396.007111,191.182999 394.073730,189.672379 392.497192,187.603043 
	C392.415955,186.147736 392.471619,185.073853 392.527313,183.999954 
z"/>
<path fill="#F5F8F9" opacity="1.000000" stroke="none" 
	d="
M392.524139,244.999603 
	C396.483459,244.499130 398.115265,245.963120 398.100037,250.217529 
	C398.073364,257.676331 398.774048,265.134766 398.950867,272.598541 
	C399.037323,276.247223 398.441650,279.739594 392.823547,278.540466 
	C392.398956,267.053650 392.461548,256.026611 392.524139,244.999603 
z"/>
<path fill="#030D23" opacity="1.000000" stroke="none" 
	d="
M392.428223,244.543915 
	C392.461548,256.026611 392.398956,267.053650 392.430603,278.540588 
	C392.524841,298.396790 392.524841,317.793091 392.524841,337.648163 
	C386.823212,337.648163 381.862549,337.648163 376.451416,337.773743 
	C374.258820,337.781891 372.516632,337.664459 370.345703,337.458984 
	C373.554443,336.916443 377.186157,336.134613 380.830597,336.070129 
	C390.992828,335.890259 390.998322,336.007629 390.997925,325.754730 
	C390.996033,275.854553 390.992126,225.954361 390.993042,175.594238 
	C391.177368,175.082947 391.357605,175.031631 391.818848,174.975250 
	C392.183655,177.684204 392.267426,180.398270 392.439270,183.556137 
	C392.471619,185.073853 392.415955,186.147736 392.358521,188.037506 
	C392.452240,191.573517 392.547729,194.293686 392.643188,197.013840 
	C392.541473,208.036041 392.439789,219.058258 392.431580,230.540497 
	C392.460815,235.363083 392.396545,239.725647 392.428223,244.543915 
z"/>
<path fill="#F5F8F9" opacity="1.000000" stroke="none" 
	d="
M410.609253,154.001587 
	C411.334137,160.364136 411.667084,166.727661 412.000000,173.545593 
	C411.753998,174.548813 411.507996,175.097626 411.261993,175.646439 
	C410.971893,175.627716 410.681793,175.609009 410.391663,175.590286 
	C410.257111,174.219696 410.329285,172.787354 409.942383,171.492142 
	C409.260590,169.209869 408.469330,166.925232 407.400513,164.804581 
	C406.526825,163.071091 403.878326,160.763824 404.279572,160.119064 
	C405.746643,157.761505 408.160248,155.992966 410.609253,154.001587 
z"/>
<path fill="#F5F8F9" opacity="1.000000" stroke="none" 
	d="
M411.013062,189.466614 
	C411.410217,190.048599 411.507690,190.626923 411.605133,191.205261 
	C411.196228,191.200089 410.787354,191.194931 410.378448,191.189758 
	C410.490082,190.614151 410.601715,190.038559 411.013062,189.466614 
z"/>
<path fill="#D6DBE1" opacity="1.000000" stroke="none" 
	d="
M55.763947,215.995239 
	C55.823292,221.691666 55.882633,227.388107 55.475784,233.661591 
	C54.676086,234.939560 54.054531,235.639252 54.051598,236.341553 
	C53.992283,250.543259 53.968075,264.745544 54.076694,278.946655 
	C54.084499,279.967041 55.166611,280.979248 55.749222,281.995239 
	C55.814842,286.359894 55.880459,290.724579 55.475250,295.547943 
	C51.667583,297.005096 48.330750,298.003540 44.993916,299.002014 
	C44.989773,269.646484 44.985626,240.290970 45.368122,210.510468 
	C49.664619,211.084137 53.524101,212.168121 55.763947,215.995239 
z"/>
<path fill="#DCDFE5" opacity="1.000000" stroke="none" 
	d="
M55.854572,215.534698 
	C53.524101,212.168121 49.664619,211.084137 45.374195,210.041702 
	C44.990826,205.641190 44.988022,201.284470 44.994244,196.462952 
	C48.349339,195.011841 51.695404,194.025528 55.404503,193.025238 
	C55.826756,200.365570 55.885975,207.719864 55.854572,215.534698 
z"/>
<path fill="#DCDFE5" opacity="1.000000" stroke="none" 
	d="
M44.989525,299.469360 
	C48.330750,298.003540 51.667583,297.005096 55.385746,296.005371 
	C55.825073,302.053223 55.883080,308.102295 55.858711,314.590332 
	C53.847042,313.676575 52.079819,312.971863 49.895676,314.920044 
	C48.951836,315.761932 47.172794,315.667450 45.382668,315.997009 
	C44.989834,310.642700 44.987484,305.289703 44.989525,299.469360 
z"/>
<path fill="#F6F8F8" opacity="1.000000" stroke="none" 
	d="
M369.794556,151.961166 
	C370.661407,151.962814 371.392548,151.789902 371.933777,152.035477 
	C373.304230,152.657211 374.589417,153.466827 375.908752,154.201172 
	C374.663147,155.131775 373.468994,156.147491 372.144531,156.947540 
	C371.670715,157.233734 370.881989,156.998611 369.841583,157.003021 
	C369.369690,155.604385 369.293182,154.204147 369.171844,152.383331 
	C369.126984,151.962738 369.572327,151.977173 369.794556,151.961166 
z"/>
<path fill="#A6D4DA" opacity="1.000000" stroke="none" 
	d="
M241.248474,36.215454 
	C243.147018,35.757637 245.293594,35.592972 247.721741,35.667343 
	C245.834381,36.107121 243.665451,36.307865 241.248474,36.215454 
z"/>
<path fill="#A6D4DA" opacity="1.000000" stroke="none" 
	d="
M227.173569,36.182335 
	C227.865646,35.777267 228.734695,35.634827 229.804031,35.705730 
	C229.119720,36.094372 228.235138,36.269665 227.173569,36.182335 
z"/>
<path fill="#A6D4DA" opacity="1.000000" stroke="none" 
	d="
M263.185455,35.874420 
	C263.100769,35.641106 263.328705,35.406384 263.844940,35.128078 
	C263.859436,35.287083 263.647736,35.549919 263.185455,35.874420 
z"/>
<path fill="#A6D4DA" opacity="1.000000" stroke="none" 
	d="
M253.631561,71.110245 
	C253.788971,71.313210 253.649628,71.564888 253.221344,71.875870 
	C253.062759,71.677956 253.196884,71.419220 253.631561,71.110245 
z"/>
<path fill="#DCDFE5" opacity="1.000000" stroke="none" 
	d="
M55.835358,281.533936 
	C55.166611,280.979248 54.084499,279.967041 54.076694,278.946655 
	C53.968075,264.745544 53.992283,250.543259 54.051598,236.341553 
	C54.054531,235.639252 54.676086,234.939560 55.385143,234.122025 
	C55.814301,249.694489 55.867901,265.383575 55.835358,281.533936 
z"/>
<path fill="#F1F6FB" opacity="1.000000" stroke="none" 
	d="
M345.050049,361.438965 
	C352.651703,361.010284 360.305084,360.948517 368.712219,361.110077 
	C374.351868,364.812225 373.852295,360.965912 374.000000,358.000000 
	C375.326477,358.758972 376.652985,359.517944 378.458344,360.550964 
	C374.888672,363.655884 376.045868,371.219147 368.451263,368.004761 
	C368.764435,366.935089 369.145325,366.420746 369.526184,365.906403 
	C367.814667,365.611908 366.040894,364.920959 364.415649,365.176117 
	C363.485657,365.322083 362.797211,367.006836 362.000000,367.998779 
	C357.021393,366.621399 352.024170,365.305450 347.083252,363.804047 
	C346.293304,363.563995 345.755890,362.492828 345.050049,361.438965 
z"/>
<path fill="#EFF3F6" opacity="1.000000" stroke="none" 
	d="
M369.827332,348.119324 
	C369.473755,345.963501 369.415375,343.898621 369.466492,341.403259 
	C373.556732,341.610870 375.425415,344.637512 373.648071,348.045013 
	C373.374115,348.570221 371.341705,348.178162 369.827332,348.119324 
z"/>
<path fill="#EFF3F6" opacity="1.000000" stroke="none" 
	d="
M373.732300,357.813904 
	C373.852295,360.965912 374.351868,364.812225 369.172668,361.136749 
	C369.027466,359.559418 369.175629,358.178711 369.413910,356.388214 
	C370.824219,356.528198 372.144379,357.078003 373.732300,357.813904 
z"/>
<path fill="#EFF3F6" opacity="1.000000" stroke="none" 
	d="
M362.428467,367.999084 
	C362.797211,367.006836 363.485657,365.322083 364.415649,365.176117 
	C366.040894,364.920959 367.814667,365.611908 369.526184,365.906403 
	C369.145325,366.420746 368.764435,366.935089 368.191772,367.724731 
	C366.285645,367.999786 364.571289,367.999603 362.428467,367.999084 
z"/>
<path fill="#F1F6FB" opacity="1.000000" stroke="none" 
	d="
M384.625000,365.000458 
	C384.197662,366.237610 383.395325,367.475220 382.296509,368.856415 
	C381.469818,368.138306 380.939636,367.276581 380.409454,366.414886 
	C381.689636,365.943573 382.969788,365.472229 384.625000,365.000458 
z"/>
<path fill="#B3B9C3" opacity="1.000000" stroke="none" 
	d="
M369.565765,338.935791 
	C369.299561,338.907166 369.215027,338.740356 369.088196,338.296265 
	C369.045898,338.018982 369.479492,337.809418 369.712830,337.868591 
	C370.006073,338.246521 369.939819,338.536499 369.565765,338.935791 
z"/>
<path fill="#73D6E5" opacity="1.000000" stroke="none" 
	d="
M207.112976,324.007416 
	C207.066147,322.936737 207.019318,321.866089 207.387177,320.360718 
	C208.879349,318.621674 209.956818,317.317383 211.500748,316.006531 
	C231.395462,315.996429 250.824402,316.076996 270.251343,315.914734 
	C273.919617,315.884064 275.431763,316.883209 275.056610,320.676239 
	C274.553497,325.763580 274.344849,330.880035 273.540100,335.989166 
	C251.701263,336.000641 230.332062,336.006927 208.648132,336.008057 
	C207.913422,335.995850 207.493408,335.988831 207.073410,335.981781 
	C207.039398,333.286285 207.005386,330.590759 207.260986,327.452576 
	C207.550613,327.009888 207.992233,327.003510 208.291412,326.966064 
	C208.911621,326.521088 209.232651,326.113617 209.553650,325.706116 
	C209.038895,325.464325 208.524139,325.222534 207.913513,324.773682 
	C207.645035,324.301758 207.410156,324.115356 207.112976,324.007416 
z"/>
<path fill="#75D2E2" opacity="1.000000" stroke="none" 
	d="
M143.024246,232.991669 
	C143.036850,225.631119 143.049454,218.270584 143.496002,210.328751 
	C157.030807,209.662460 170.131668,209.577454 183.232544,209.492447 
	C183.419449,217.016663 183.606369,224.540878 183.928680,232.499130 
	C184.064072,232.933167 184.112701,232.891113 184.112701,232.891113 
	C170.700546,232.942581 157.288376,232.994049 143.429840,232.997330 
	C142.983444,232.949142 143.024246,232.991669 143.024246,232.991669 
z"/>
<path fill="#74D5E3" opacity="1.000000" stroke="none" 
	d="
M339.863495,216.950134 
	C339.944946,222.003052 340.026398,227.055954 340.051208,232.553925 
	C339.994537,232.998978 340.034241,232.960587 339.564209,232.988708 
	C326.395447,232.959625 313.696747,232.902405 301.001953,232.387070 
	C301.002869,226.961548 301.289642,221.972183 300.915466,217.032898 
	C300.539185,212.066452 302.595367,210.742004 307.242096,210.930176 
	C314.846283,211.238098 322.486328,211.294189 330.083710,210.910385 
	C335.047791,210.659607 338.386993,212.038040 339.863495,216.950134 
z"/>
<path fill="#75D0E0" opacity="1.000000" stroke="none" 
	d="
M299.804321,235.970062 
	C299.750000,236.418701 299.695709,236.867355 299.628357,238.108780 
	C299.676849,243.944260 299.738342,248.986938 299.799866,254.029633 
	C299.753815,254.377472 299.707764,254.725311 299.320435,255.519012 
	C291.359619,255.888733 283.740112,255.812607 276.120544,255.736481 
	C276.139709,254.732269 276.158844,253.728043 276.187622,251.925705 
	C276.139404,249.089752 276.081543,247.051941 276.023712,245.014114 
	C276.023712,241.243973 276.023712,237.473831 276.023712,233.035889 
	C284.082489,233.035889 291.606873,233.035889 299.425171,233.363739 
	C299.747467,234.451065 299.775879,235.210571 299.804321,235.970062 
z"/>
<path fill="#79D3E4" opacity="1.000000" stroke="none" 
	d="
M339.974579,233.018066 
	C347.554169,233.037170 355.153717,233.037170 363.274963,233.037170 
	C363.274963,240.766769 363.274963,248.024323 362.679657,255.734619 
	C354.739746,256.086029 347.395172,255.984650 340.050568,255.883286 
	C340.050568,255.883286 340.034912,255.430801 340.048767,254.753433 
	C340.053162,247.037567 340.043701,239.999084 340.034241,232.960587 
	C340.034241,232.960587 339.994537,232.998978 339.974579,233.018066 
z"/>
<path fill="#7AD4E4" opacity="1.000000" stroke="none" 
	d="
M142.961639,232.929321 
	C142.939819,240.384201 142.939819,247.858871 142.939819,255.754822 
	C135.375732,255.754822 127.862915,255.754822 120.071747,255.754822 
	C120.071747,248.338394 120.071747,240.951431 120.071747,233.039520 
	C127.545563,233.039520 134.816437,233.039520 142.555771,233.015594 
	C143.024246,232.991669 142.983444,232.949142 142.961639,232.929321 
z"/>
<path fill="#75D6E4" opacity="1.000000" stroke="none" 
	d="
M205.024506,313.931396 
	C198.650848,313.973083 192.277191,314.014801 185.445526,313.534607 
	C184.982666,308.682220 184.977814,304.351715 184.983124,299.640564 
	C184.985794,298.499146 184.978317,297.738373 184.974762,296.590149 
	C185.976791,295.126251 186.974915,294.049835 188.362991,292.983521 
	C190.173035,292.670593 191.593124,292.347473 193.340363,292.024048 
	C194.103378,292.025970 194.539246,292.028229 195.269638,292.313232 
	C198.705368,292.734741 201.846558,292.873474 204.991791,293.479950 
	C205.005371,300.608917 205.014938,307.270172 205.024506,313.931396 
z"/>
<path fill="#78D1E0" opacity="1.000000" stroke="none" 
	d="
M298.029022,313.919678 
	C291.651398,313.988678 285.273773,314.057709 278.437378,313.595886 
	C277.979218,311.410095 277.909546,309.751587 277.993713,308.100861 
	C278.242615,303.218536 276.746277,296.398712 279.333405,293.991028 
	C282.055969,291.457336 288.717621,293.299286 293.636292,292.934875 
	C297.242706,292.667633 298.206757,294.172943 298.074402,297.538025 
	C297.859894,302.990753 298.024475,308.458344 298.029022,313.919678 
z"/>
<path fill="#73D6E5" opacity="1.000000" stroke="none" 
	d="
M196.047607,255.970337 
	C195.579437,256.022614 195.111282,256.074860 194.045135,255.772919 
	C191.311172,255.605148 189.175186,255.791611 187.039185,255.978088 
	C186.584717,256.031281 186.130234,256.084503 185.341187,255.606171 
	C185.006897,249.600769 185.066025,244.125977 184.980209,238.653458 
	C184.942749,236.265762 185.559845,234.898499 188.298676,234.976440 
	C192.773636,235.103775 197.266693,234.833771 201.725281,235.132248 
	C202.862457,235.208389 204.835144,236.796143 204.830658,237.681290 
	C204.799713,243.773346 204.345840,249.863281 204.028046,255.953888 
	C203.255920,256.009277 202.483795,256.064667 201.107086,255.777924 
	C199.017548,255.613968 197.532578,255.792145 196.047607,255.970337 
z"/>
<path fill="#86C0D6" opacity="1.000000" stroke="none" 
	d="
M298.428528,313.908539 
	C298.024475,308.458344 297.859894,302.990753 298.074402,297.538025 
	C298.206757,294.172943 297.242706,292.667633 293.636292,292.934875 
	C288.717621,293.299286 282.055969,291.457336 279.333405,293.991028 
	C276.746277,296.398712 278.242615,303.218536 277.993713,308.100861 
	C277.909546,309.751587 277.979218,311.410095 277.969971,313.533875 
	C277.445679,315.572845 276.539490,317.129272 276.483704,318.715607 
	C276.270660,324.769562 276.331573,330.833130 275.932556,337.260620 
	C275.399628,337.687805 275.224335,337.747498 275.049072,337.807159 
	C274.897705,337.557129 274.677002,337.414124 274.206451,336.970245 
	C274.020538,336.369537 274.015137,336.176758 274.009766,335.984009 
	C274.344849,330.880035 274.553497,325.763580 275.056610,320.676239 
	C275.431763,316.883209 273.919617,315.884064 270.251343,315.914734 
	C250.824402,316.076996 231.395462,315.996429 211.105392,315.993408 
	C209.192215,315.992737 208.140839,315.998657 207.089478,316.004578 
	C208.430222,315.377350 209.767609,314.212128 211.112183,314.203796 
	C230.570038,314.083130 250.028885,314.117737 269.487488,314.115204 
	C271.466187,314.114960 273.444885,314.115173 275.951721,314.115173 
	C275.951721,306.472321 275.951721,299.087616 275.951721,291.324463 
	C283.992706,291.324463 291.515533,291.324463 299.885864,291.324463 
	C299.531342,298.889465 299.179657,306.393433 298.428528,313.908539 
z"/>
<path fill="#063149" opacity="1.000000" stroke="none" 
	d="
M339.564209,232.988708 
	C340.043701,239.999084 340.053162,247.037567 339.979126,254.538025 
	C339.267822,253.683807 338.181671,252.395782 338.098755,251.046127 
	C337.855347,247.083603 338.241272,243.075851 337.886993,239.130142 
	C337.759735,237.712708 336.225159,235.249939 335.333588,235.250275 
	C323.777710,235.254623 312.221924,235.617233 300.235229,235.929749 
	C299.775879,235.210571 299.747467,234.451065 299.898621,233.353241 
	C300.078217,233.014908 300.026642,233.054031 300.258606,233.023819 
	C300.659698,232.944138 300.828888,232.894669 300.998047,232.845184 
	C313.696747,232.902405 326.395447,232.959625 339.564209,232.988708 
z"/>
<path fill="#86CCDF" opacity="1.000000" stroke="none" 
	d="
M204.390823,256.038971 
	C204.345840,249.863281 204.799713,243.773346 204.830658,237.681290 
	C204.835144,236.796143 202.862457,235.208389 201.725281,235.132248 
	C197.266693,234.833771 192.773636,235.103775 188.298676,234.976440 
	C185.559845,234.898499 184.942749,236.265762 184.980209,238.653458 
	C185.066025,244.125977 185.006897,249.600769 185.001648,255.544159 
	C184.585678,254.755814 183.840698,253.503281 183.820343,252.239105 
	C183.721527,246.101334 183.816940,239.960434 183.978119,233.355865 
	C184.112701,232.891113 184.064072,232.933167 184.042404,232.954605 
	C191.540985,233.097397 199.061249,233.218765 206.792725,234.140823 
	C206.995819,241.951828 206.987656,248.962158 206.979492,255.972473 
	C206.237534,256.023010 205.495560,256.073517 204.390823,256.038971 
z"/>
<path fill="#001C32" opacity="1.000000" stroke="none" 
	d="
M299.953217,209.613373 
	C300.850586,209.077606 301.743988,208.083359 302.645966,208.075531 
	C314.341614,207.973801 326.038605,207.994125 337.734802,208.061386 
	C338.419464,208.065308 339.100311,208.734268 339.439636,209.421997 
	C326.048645,209.704636 313.000946,209.659012 299.953217,209.613373 
z"/>
<path fill="#001C32" opacity="1.000000" stroke="none" 
	d="
M182.966400,209.116028 
	C170.131668,209.577454 157.030807,209.662460 143.474854,209.858597 
	C143.984299,209.314911 144.944260,208.098648 145.914108,208.090729 
	C157.732498,207.994003 169.552383,208.068054 181.371643,208.136047 
	C181.815659,208.138596 182.257431,208.529633 182.966400,209.116028 
z"/>
<path fill="#95D4E9" opacity="1.000000" stroke="none" 
	d="
M299.834137,210.096359 
	C313.000946,209.659012 326.048645,209.704636 339.565002,209.801346 
	C340.031311,211.928207 340.028931,214.003998 339.945007,216.514954 
	C338.386993,212.038040 335.047791,210.659607 330.083710,210.910385 
	C322.486328,211.294189 314.846283,211.238098 307.242096,210.930176 
	C302.595367,210.742004 300.539185,212.066452 300.915466,217.032898 
	C301.289642,221.972183 301.002869,226.961548 301.001953,232.387085 
	C300.828888,232.894669 300.659698,232.944138 300.227112,233.016174 
	C299.880829,225.552277 299.797943,218.065796 299.834137,210.096359 
z"/>
<path fill="#82D6E6" opacity="1.000000" stroke="none" 
	d="
M273.540100,335.989166 
	C274.015137,336.176758 274.020538,336.369537 274.041382,336.851379 
	C273.633728,337.211395 273.210693,337.282379 272.008118,337.223785 
	C266.770416,337.199158 262.312286,337.304108 257.854126,337.409058 
	C242.253250,337.402313 226.652359,337.395599 210.284424,337.312195 
	C209.300537,337.307587 209.083710,337.379608 208.866898,337.451630 
	C208.866898,337.451630 208.778885,337.317688 208.858826,336.958496 
	C208.946808,336.403992 208.954834,336.208618 208.962860,336.013245 
	C230.332062,336.006927 251.701263,336.000641 273.540100,335.989166 
z"/>
<path fill="#063149" opacity="1.000000" stroke="none" 
	d="
M276.151855,256.153870 
	C283.740112,255.812607 291.359619,255.888733 299.401489,255.773346 
	C299.196625,256.369385 298.583038,257.828247 297.940186,257.841248 
	C291.140594,257.978790 284.335968,257.910645 277.534302,257.801849 
	C277.077454,257.794525 276.633209,256.999786 276.151855,256.153870 
z"/>
<path fill="#001C32" opacity="1.000000" stroke="none" 
	d="
M207.228287,256.214294 
	C206.987656,248.962158 206.995819,241.951828 207.069809,234.478027 
	C207.752609,234.822617 208.885544,235.618866 208.904404,236.440689 
	C209.047272,242.663467 209.002701,248.891800 208.900330,255.116486 
	C208.892868,255.570724 207.972855,256.009949 207.228287,256.214294 
z"/>
<path fill="#063149" opacity="1.000000" stroke="none" 
	d="
M340.108185,256.293762 
	C347.395172,255.984650 354.739746,256.086029 362.554077,256.203400 
	C355.465088,259.240479 347.832458,258.774414 340.108185,256.293762 
z"/>
<path fill="#86CCDF" opacity="1.000000" stroke="none" 
	d="
M205.464813,313.968079 
	C205.014938,307.270172 205.005371,300.608917 204.999802,293.471893 
	C205.003799,292.996094 205.018463,292.981384 205.248047,293.074219 
	C205.894302,293.433929 206.310989,293.700806 206.727661,293.967712 
	C206.802414,299.841522 206.918213,305.715454 206.904053,311.589050 
	C206.902115,312.395081 206.254044,313.199554 205.464813,313.968079 
z"/>
<path fill="#86C0D6" opacity="1.000000" stroke="none" 
	d="
M184.972961,300.021210 
	C184.977814,304.351715 184.982666,308.682220 184.978760,313.472534 
	C184.548721,309.537262 184.127426,305.142120 184.083939,300.375732 
	C184.632141,300.010071 184.802551,300.015625 184.972961,300.021210 
z"/>
<path fill="#86C0D6" opacity="1.000000" stroke="none" 
	d="
M187.973038,292.973389 
	C186.974915,294.049835 185.976791,295.126251 184.719757,296.599121 
	C184.290543,297.002533 184.120255,297.009552 183.949966,297.016541 
	C183.988022,294.437988 181.431732,290.449310 187.612335,291.382507 
	C187.992966,292.169647 187.983002,292.571503 187.973038,292.973389 
z"/>
<path fill="#86CCDF" opacity="1.000000" stroke="none" 
	d="
M204.995789,293.004150 
	C201.846558,292.873474 198.705368,292.734741 195.595886,292.302826 
	C196.407791,291.741333 197.187958,291.473022 197.968124,291.204712 
	C199.699478,291.149109 201.430817,291.093536 203.704407,291.341217 
	C204.503937,292.090118 204.761200,292.535736 205.018463,292.981384 
	C205.018463,292.981384 205.003799,292.996094 204.995789,293.004150 
z"/>
<path fill="#063149" opacity="1.000000" stroke="none" 
	d="
M300.130768,253.761261 
	C299.738342,248.986938 299.676849,243.944260 299.708618,238.440521 
	C300.021851,243.150620 300.241760,248.321762 300.130768,253.761261 
z"/>
<path fill="#347B8D" opacity="1.000000" stroke="none" 
	d="
M258.220764,337.601959 
	C262.312286,337.304108 266.770416,337.199158 271.685730,337.240234 
	C267.624420,337.522461 263.105896,337.658661 258.220764,337.601959 
z"/>
<path fill="#063149" opacity="1.000000" stroke="none" 
	d="
M275.647339,245.089508 
	C276.081543,247.051941 276.139404,249.089752 276.110168,251.556519 
	C272.486633,250.074249 273.680786,247.641403 275.647339,245.089508 
z"/>
<path fill="#82D6E6" opacity="1.000000" stroke="none" 
	d="
M207.025879,316.402161 
	C208.140839,315.998657 209.192215,315.992737 210.638931,315.999939 
	C209.956818,317.317383 208.879349,318.621674 207.468109,319.965698 
	C207.076996,318.936859 207.019638,317.868317 207.025879,316.402161 
z"/>
<path fill="#86C0D6" opacity="1.000000" stroke="none" 
	d="
M197.533813,291.119812 
	C197.187958,291.473022 196.407791,291.741333 195.301361,292.020081 
	C194.539246,292.028229 194.103378,292.025970 193.013535,292.015106 
	C191.581650,291.728424 190.803726,291.450378 190.025803,291.172333 
	C192.383698,291.126556 194.741592,291.080750 197.533813,291.119812 
z"/>
<path fill="#86CCDF" opacity="1.000000" stroke="none" 
	d="
M187.465210,256.059998 
	C189.175186,255.791611 191.311172,255.605148 193.698364,255.694778 
	C191.930099,256.027893 189.910675,256.084930 187.465210,256.059998 
z"/>
<path fill="#86CCDF" opacity="1.000000" stroke="none" 
	d="
M189.692581,291.101685 
	C190.803726,291.450378 191.581650,291.728424 192.686386,292.015411 
	C191.593124,292.347473 190.173035,292.670593 188.362991,292.983521 
	C187.983002,292.571503 187.992966,292.169647 188.006805,291.466034 
	C188.460251,291.119873 188.909805,291.075439 189.692581,291.101685 
z"/>
<path fill="#86C0D6" opacity="1.000000" stroke="none" 
	d="
M205.248047,293.074219 
	C204.761200,292.535736 204.503937,292.090118 204.132263,291.412537 
	C204.979614,291.861664 205.941345,292.542786 206.815384,293.595795 
	C206.310989,293.700806 205.894302,293.433929 205.248047,293.074219 
z"/>
<path fill="#B3B9C3" opacity="1.000000" stroke="none" 
	d="
M369.372314,174.224365 
	C369.351746,173.829269 369.724091,173.719574 370.274414,173.895294 
	C371.872009,174.108475 372.919281,174.145950 373.966583,174.183411 
	C373.966583,174.183411 374.006958,174.519241 374.030884,174.686661 
	C372.500854,174.775879 370.946899,174.697678 369.372314,174.224365 
z"/>
<path fill="#86CCDF" opacity="1.000000" stroke="none" 
	d="
M196.450165,256.054993 
	C197.532578,255.792145 199.017548,255.613968 200.726135,255.699341 
	C199.584061,256.021820 198.218384,256.080750 196.450165,256.054993 
z"/>
<path fill="#86CCDF" opacity="1.000000" stroke="none" 
	d="
M183.880585,297.384277 
	C184.120255,297.009552 184.290543,297.002533 184.715836,296.986572 
	C184.978317,297.738373 184.985794,298.499146 184.983124,299.640564 
	C184.802551,300.015625 184.632141,300.010071 184.206161,299.994263 
	C183.904129,299.239990 183.857666,298.496002 183.880585,297.384277 
z"/>
<path fill="#86C0D6" opacity="1.000000" stroke="none" 
	d="
M207.992233,327.003510 
	C207.992233,327.003510 207.550613,327.009888 207.329803,327.008423 
	C207.056244,326.254150 207.003510,325.501373 207.031891,324.377991 
	C207.410156,324.115356 207.645035,324.301758 207.906647,325.111023 
	C207.994507,326.104767 207.993378,326.554138 207.992233,327.003510 
z"/>
<path fill="#86C0D6" opacity="1.000000" stroke="none" 
	d="
M208.648132,336.008057 
	C208.954834,336.208618 208.946808,336.403992 208.901520,336.890686 
	C208.263779,337.017334 207.663300,336.852692 207.068115,336.334900 
	C207.493408,335.988831 207.913422,335.995850 208.648132,336.008057 
z"/>
<path fill="#001C32" opacity="1.000000" stroke="none" 
	d="
M275.143188,338.009705 
	C275.224335,337.747498 275.399628,337.687805 275.854004,337.626526 
	C275.834473,337.820709 275.535858,338.016479 275.143188,338.009705 
z"/>
<path fill="#347B8D" opacity="1.000000" stroke="none" 
	d="
M209.004379,337.590271 
	C209.083710,337.379608 209.300537,337.307587 209.846329,337.333008 
	C209.830826,337.529938 209.486343,337.629425 209.004379,337.590271 
z"/>
<path fill="#F6F8F8" opacity="1.000000" stroke="none" 
	d="
M373.804443,173.892487 
	C372.919281,174.145950 371.872009,174.108475 370.468018,173.908173 
	C371.288330,173.697403 372.465332,173.649475 373.804443,173.892487 
z"/>
<path fill="#F6F8F8" opacity="1.000000" stroke="none" 
	d="
M392.981201,196.995239 
	C392.547729,194.293686 392.452240,191.573517 392.495453,188.418915 
	C394.073730,189.672379 396.007111,191.182999 396.708374,193.136032 
	C396.986511,193.910721 394.530396,195.667160 392.981201,196.995239 
z"/>
<path fill="#82D6E6" opacity="1.000000" stroke="none" 
	d="
M208.291412,326.966064 
	C207.993378,326.554138 207.994507,326.104767 208.002502,325.318054 
	C208.524139,325.222534 209.038895,325.464325 209.553650,325.706116 
	C209.232651,326.113617 208.911621,326.521088 208.291412,326.966064 
z"/>
</svg>