<svg xmlns="http://www.w3.org/2000/svg" xml:space="preserve" viewBox="0 0 482 401"><path fill="#010202" d="M276 1h206.974v400.922H1.14V1c68.294 0 136.61 0 205.388.469.463 7.42.463 14.372.463 21.324 1.017-5.298 1.269-10.6.935-15.864-.256-4.046 1.231-5.048 5.095-5.013 19.269.173 38.54.105 57.81.036 1.724-.006 3.446-.62 5.169-.952M44.887 348.635c.373.068.746.136 2.009.334 2.69-.058 5.382-.115 8.933-.342.122-7.21.245-14.418 1.12-21.629 1.793-.628 3.655-1.113 5.362-1.922 1.82-.863 3.493-2.033 5.436-2.154v37.624c6.96 0 13.249-.137 19.522.111 1.307.052 2.557 1.525 3.646 3.216.065 2.379.13 4.757.098 7.717.327.115.654.23 1.897.553 5.697-.07 11.394-.141 18.01-.014 84.707.013 169.415.03 254.122.027 5.652 0 11.304-.148 17.84-.028 2.707-.063 5.416-.126 8.745-.1.134-.344.267-.688.638-1.91-.026-3.016-.053-6.032.441-9.277.096-.163.192-.327 1.177-.344h21.397v-4.239c.04-45.95.108-91.9.108-137.852 0-14.806-.176-29.612-.027-45.326-.099-6.693-.198-13.386-.125-20.674-.059-.198-.118-.396-.077-.9 0 0 .086-.31.612-.993v-20.605l-.932-.012c0 6.99 0 13.98-.332 21.247-.23.186-.398.417-1.435.833-6.989-.076-13.978-.152-20.918-1.105-.072-2.96-.144-5.92-.051-9.435-.364-.304-.729-.607-1.998-1.172-95.545-.026-191.089-.053-286.633-.069-1.157 0-2.314.15-4.288.025-1.394.07-2.79.139-4.84.002-.448.07-.896.14-1.967.024-.392.584-.784 1.168-1.342 2.415.06.447.121.895.005 2.23v7.229H67.452c0 4.293 0 8.082-.732 11.878-1.75.678-3.498 1.365-5.254 2.031-1.756.668-3.52 1.315-5.452 1.082.212-2.177-.069-3.832-2.958-3.539-1.416.144-2.876-.146-4.878-.545-1.062.65-2.124 1.3-3.183 2.891-.032 6.363-.064 12.726-.36 19.593-.213.508-.427 1.015-1.567 1.485H32.704v22.866H10.152v92.905h22.972v22.706c4.237.293 8.007.553 11.534 1.685.056 6.601.113 13.203.005 20.344.078.171.155.343.224 1.133M275.193 35.852c-3.378-.043-6.755-.087-10.156-.568 0 0-.332-.288-.254-1.228V12.883h-46.566c0 7.917 0 15.396-.153 22.834 0 0-.108.115-1.02.085-3.37.08-6.74.161-11.004.012h-10.69v34.542c4.024 0 7.795 0 12.464.291 3.512.12 7.024.238 10.552 1.29v33.121c4.467 0 8.09 0 12.609.268 7.321-.084 14.642-.17 22.881-.031h10.992c0-11.825 0-23.045.87-34.482 1.776-.107 3.552-.214 6.17-.114 1.73-.049 3.46-.097 6.084.03h9.832V36.085c-4.106 0-7.905 0-12.611-.233m29.938 81.064c-2.716.07-5.433.14-9.072.066-5.347.048-10.694.097-16.957-.058-4.705.061-9.411.122-14.903.037-1.061.049-2.122.098-4.058-.055-2.385.069-4.771.138-8.032.06-2.364.05-4.729.098-7.915-.056-1.403.067-2.806.135-5.029.055-1.383.048-2.766.096-4.94-.059-1.08.068-2.16.136-3.892.06-.439.047-.878.096-2.237-.06-7.704.066-15.407.131-24.036.05-13.348.051-26.696.102-40.964-.052-11.371.071-22.742.142-34.763.07-.439.048-.878.096-2.19-.058-2.387.07-4.774.14-8.07.063-3.685.048-7.37.096-11.973-.06-4.146-.013-8.295.086-12.434-.079-2.496-.099-3.406.722-2.782 4.02.047 2.046.093 4.091.086 6.981 1.535.286 3.069.822 4.603.822 80.607.02 161.213-.008 241.82-.027 16.987-.004 33.975.033 50.962-.042 1.602-.007 4.566 1.206 3.843-3.449-.048-1.71-.096-3.42.105-5.779-.82-.828-1.589-2.296-2.47-2.366-2.928-.234-5.896.035-9.774-.033-9.014.051-18.028.103-27.864-.052-1.403.065-2.807.13-4.861.051-.44.048-.88.096-2.239-.06-11.37.067-22.74.134-34.93.057-1.383.052-2.766.103-5.034-.047M90.878 385.905v9.352h3.174c92.655-.016 185.31-.029 277.966-.056 6.326-.002 12.651-.117 19.654-.117.157-.372.314-.745.702-1.943-.085-1.704-.169-3.407-.04-5.927-.446-1.08-.892-2.16-2.254-3.457-95.702-.022-191.405-.046-287.107-.055-3.652 0-7.304.14-11.588.165-.108.375-.216.749-.507 2.038m349.013-60.123h10.343v-23.01h22.999v-93.119h-23.196v-23.095c-3.918 0-7.403 0-11.07-.846l-1.213-21.945h-10.416v184.877h11.625c0-7.88 0-15.36.928-22.862m-145.39-219.794h108.843l-.004-.696H277.123l-.007.693c5.462 0 10.924 0 17.385.003m-166.001-.983H80.668l.005.747h125.559q0-.374.003-.747zM184.001 53.5V25.642l-.682.016v55.69h.682zM33.996 345.656v-6.452l-.741.036v20.715l.743.014c0-4.454 0-8.907-.002-14.313"/><path fill="#0f1011" d="M275.531 1c-1.254.332-2.976.946-4.7.952-19.27.069-38.541.137-57.81-.036-3.864-.035-5.351.967-5.095 5.013.334 5.264.082 10.566-.935 15.864 0-6.952 0-13.904.004-21.324C229.688 1 252.375 1 275.531 1"/><path fill="#f5f8f9" d="M91.102 363c-1.276-.818-2.526-2.291-3.833-2.343-6.273-.248-12.561-.111-19.522-.111 0-12.618 0-25.121.002-38.54-.07-6.932-.142-12.948-.099-19.401.04-2.842-.036-5.246-.02-8.108.023-25.79-.046-51.122.004-76.896.039-3.178-.041-5.913-.027-9.105.008-8.12-.078-15.785-.031-23.846.038-1.501-.057-2.604-.04-4.157.047-5.802-.018-11.152-.084-16.502V152.12H91.04c0-2.726 0-4.977.486-7.66 3.553-.397 6.67.015 9.673-.401 7.047-.977 12.332 2.115 12.757 8.248.032.79.097 1.24.07 2.15-.134 6.803-.174 13.145-.417 19.565-.457.25-.612.488-1.077.85-1.786.138-3.161.216-4.996.214-5.755-.08-11.05-.08-16.517-.08v162.382c7.505 0 14.783 0 21.978.128-.082.128.116.358.166.59.201.515.407.752.697 1.406.089 6.136.148 11.808.107 17.867 0 1.443.099 2.499-.181 3.578-1.167.5-2.146.812-2.712 1.476-6.313 7.4-7.809 7.54-15.386 1.897-1.196-.89-3.041-.909-4.586-1.33"/><path fill="#f6f8f8" d="M392.105 151.748c6.99.076 13.978.152 21.698.25.905-.048 1.08-.117 1.256-.186.059.198.118.396-.26.92-1.557.64-2.677.955-4.19 1.27-2.449 1.991-4.862 3.76-6.33 6.117-.4.645 2.248 2.952 3.122 4.686 1.068 2.12 1.86 4.405 2.541 6.687.387 1.295.315 2.728.45 4.098l.87.056c.246-.548.492-1.097.997-1.547 1.125.03 1.991-.041 2.858-.111.095 14.806.27 29.612.27 44.418 0 45.951-.066 91.902-.107 137.852v4.239c-7.26 0-14.329 0-21.841-.43-2.28-6.045-3.51-11.832-9.552-15.089-3.023-1.629-5.282-4.674-7.436-7.204 5.412-.126 10.372-.126 16.074-.126 0-19.855 0-39.251.393-58.648 5.524.74 6.12-2.753 6.033-6.401-.177-7.464-.878-14.923-.851-22.381.015-4.255-1.617-5.719-5.672-5.674-.031-4.818.033-9.18.439-13.532 1.398 1.095 2.633 2.059 3.462 3.295.87 1.298 1.101 3.823 2.06 4.069 1.338.343 3.091-.93 4.716-1.528-4.829-6.549-7.003-12.461-6.26-19.832 1.075-10.657 9.454-8.441 15.85-9.38l-1.176-12.746-5.182 3.766c-.547-2.755-1.004-4.73-1.316-6.729-.23-1.465.304-3.732-.486-4.318-5.314-3.945-2.52-8.534-1.53-13.07.286-1.313.043-2.741.043-4.117l-1.858-.247c-2.159 4.314-4.27 8.654-6.538 12.91-.284.532-1.396.621-2.213.471-.172-3.158-.255-5.872-.047-8.745 1.658-1.815 3.43-3.292 4.257-5.183.632-1.445.464-4.798-.026-4.94-6.092-1.748-4.395-6.6-4.615-11.064.037-.876.067-1.376.097-1.876m18.608 37.715-.335 1.727 1.227.015c-.097-.578-.195-1.156-.892-1.742"/><path fill="#f5f7f8" d="m44.9 326.287-11.776-.814v-22.706H10.152v-92.905h22.552v-22.866c3.803 0 7.083 0 10.842.443.805 3.149 1.13 5.854 1.448 9.024-.006 4.821-.003 9.178-.006 14.004-.002 29.824.002 59.18.002 89.002-.003 5.82 0 11.174-.003 16.989-.032 3.584-.06 6.706-.086 9.829M439.149 186.558h10.888v23.095h23.196v93.12h-23v23.009c-3.757 0-7.05 0-10.777-.445-.45-3.773-.481-7.103-.477-10.432q.081-64.174.17-128.347"/><path fill="#f2f5f7" d="M392.13 151.31c-.055.938-.085 1.438-.522 2.314-2.42-.062-4.43-.5-6.441-.939l-.246-1.668 5.978-3.228-1.242-2.224c-4.469-.384-8.933-1.005-13.408-1.09-4.882-.093-7.247 2.4-6.454 7.486a8 8 0 0 1-1.142-.048c-41.093-.065-81.71-.107-122.329-.09-44.111.02-88.223.093-132.335.142-.458-5.79-5.743-8.883-12.79-7.906-3.003.416-6.12.004-9.584-.044-.459-.46-.52-.907-.23-1.718A74 74 0 0 0 93 140.432c.447-.07.895-.14 1.773.207 2.028.207 3.627-.003 5.227-.213 1.157-.08 2.314-.23 3.47-.23 95.545.015 191.09.042 287.131.426.777.695 1.056 1.032 1.336 1.369.072 2.96.144 5.92.192 9.318"/><path fill="#d6dce2" d="M390.995 395.022c-6.326.062-12.651.177-18.977.179-92.655.027-185.31.04-277.966.056h-3.174c0-3.187 0-6.27.31-9.928.569-.802.742-1.08.83-1.412 3.651-.075 7.303-.216 10.955-.215 95.702.01 191.405.033 287.56.54.83 1.586 1.209 2.687 1.587 3.789.085 1.703.17 3.406-.111 5.629-.582.8-.798 1.081-1.014 1.362"/><path fill="#75d6e4" d="M271.047 70.491c-1.777.108-3.553.215-6.216.42-4.258.097-7.63.096-11.2.2-.434.308-.568.567-.596 1.35-.031 11.183-.064 21.897-.096 32.611-7.322.085-14.643.17-22.423-.352-.48-7.92-.53-15.235-.514-22.55.025-11.554.045-11.553-11.652-11.166-3.512-.119-7.024-.238-10.974-.928a423 423 0 0 1-.046-32.26c3.797-.763 7.212-1.373 10.626-1.984 0 0 .108-.115.603-.072 3.143.082 5.79.12 8.615.422 1.061.088 1.946-.088 3.288-.264 3.818.001 7.178.003 10.786.297 2.417.093 4.586-.108 7.22-.309 5.133.01 9.8.02 14.717-.032.463-.324.674-.587 1.042-.913.156-.064.478.035.478.035s.332.288.566.86c3.755.755 7.277.94 10.839 1.593.036 10.828.032 21.188-.354 31.552-1.824.5-3.267.995-4.71 1.49"/><path fill="#f2f5f7" d="M261.015 117.108c1.062-.05 2.123-.098 3.697.302 3.8.807 7.088 1.412 10.376 1.416 1.643.002 3.286-1.097 4.93-1.698 5.347-.049 10.694-.098 16.615.29 3.64 1.744 6.696 2.911 9.383-.301 1.383-.051 2.766-.102 4.679.295 1.058.786 1.583 1.412 2.114 1.416 10.229.074 20.459.117 30.687.012.845-.009 1.68-1.127 2.52-1.73.439-.048.878-.096 1.733.266 2.033.189 3.65-.033 5.268-.255 9.014-.051 18.028-.103 27.62.286 4.19 1.163 7.804 1.885 11.418 2.608.047 1.71.095 3.42-.313 5.743-2.415.847-4.373 1.28-6.331 1.283-23.491.048-46.982.04-70.474.033-74.638-.023-149.275-.052-223.913-.078-.047-2.045-.093-4.09.34-6.65 4.043-.815 7.628-.976 11.164-1.48 1.548-.22 2.996-1.14 4.49-1.743 3.685-.048 7.37-.096 11.619.287 3.32 1.824 6.053 2.97 8.38-.291.438-.049.877-.097 1.762.303.975.783 1.502 1.406 2.034 1.41 10.227.071 20.455.113 30.682.005.846-.009 1.68-1.126 2.52-1.729 13.349-.05 26.697-.1 40.628.299 8.295.635 16.007.831 23.72.951.211.004.435-.814.653-1.248.439-.048.878-.097 1.725.252 1.696.18 2.985-.036 4.275-.252 1.383-.049 2.766-.097 4.649.267 2.393 2.17 4.08 2.444 5.351-.264 2.364-.049 4.729-.098 7.639.286 3.303 1.843 6.037 2.989 8.36-.291"/><path fill="#d8dce1" d="M439.058 186.135c.033 43.205-.026 85.987-.08 128.77-.003 3.33.028 6.659.014 10.443-.029 7.936-.029 15.416-.029 23.296h-11.625V163.767h10.416c.413 7.458.813 14.701 1.304 22.368"/><path fill="#010101" d="M67.515 218.043c.069 25.332.138 50.665-.23 76.461a291 291 0 0 1-4.151 3.932l4.401 4.606c.072 6.016.144 12.032.111 18.507-1.842 1.494-3.516 2.664-5.335 3.527-1.707.81-3.569 1.294-5.827 1.487-.546-4.135-.627-7.834-.625-11.973.024-6.488-.034-12.537-.002-19.043.023-4.822-.042-9.187-.022-14.013.033-16.15-.02-31.84.016-47.989.032-6.157-.028-11.853.004-18.01.031-7.815-.028-15.17.008-22.896.035-1.132-.025-1.892 0-3.113.164-7.483.244-14.504.324-21.525 1.76-.657 3.523-1.304 5.28-1.972 1.755-.666 3.502-1.353 5.619-2.034.432 5.346.497 10.696.135 16.514-3.682 2.38-2.03 3.507.222 4.539.086 7.663.172 15.327-.197 23.45-1.646 1.122-2.839 1.785-4.032 2.449z"/><path fill="#f5f8f9" d="M376.001 337.9c2.604 2.404 4.863 5.45 7.886 7.078 6.042 3.257 7.272 9.044 9.107 15.016-.096.52-.192.684-.949.944-3.54.209-6.355.424-7.42 4.062-1.655.472-2.935.944-4.216 1.415.53.862 1.06 1.723 1.591 2.951l-.002 2.563c-5.652.079-11.304.227-16.956.227-84.707.002-169.415-.014-254.496-.497 2.647-1.472 5.692-2.406 8.682-3.492 3.653-1.327 7.16-3.276 10.916-4.04 3.76-.766 7.83-.94 11.612-.37 3.378.508 6.55 2.386 10.48 3.92.894-1.141 1.286-4.645 6.098-3.03 7.184 2.408 14.79 4.315 22.315 4.75 8.6.498 17.301-1.021 25.97-1.344 7.07-.262 14.157.033 21.234-.089 3.782-.065 7.576-.848 11.335-.667 5.758.278 11.488 1.572 17.235 1.6 10.147.052 20.126-3.07 30.474-1.047 5.893 1.152 12.094 1.209 18.132 1.015 6.64-.213 13.253-1.263 19.874-1.986 2.126-.232 4.243-.552 6.355-.887 3.515-.558 6.994-1.212 9.155-5.01 1.801-.03 3.193.03 4.637.457.706 1.054 1.243 2.125 2.033 2.365 4.941 1.501 9.938 2.817 15.345 4.195 2.143 0 3.858 0 5.831.281 7.787 2.94 6.63-4.624 10.2-7.729-1.806-1.033-3.133-1.792-4.727-2.737-1.588-.736-2.908-1.286-4.315-2.27-.02-2.796.047-5.156.41-7.425 1.515.06 3.547.451 3.821-.074 1.777-3.407-.091-6.434-4.174-7.378-.098-.735-.094-1.164.092-1.731.374-.4.44-.69.462-1.152.081-.144-.111-.413.318-.325 2.17.205 3.913.323 5.655.44"/><path fill="#f1f6fb" d="M340.003 361.072c-1.751 3.708-5.23 4.362-8.745 4.92-2.112.335-4.23.655-6.355.887-6.62.723-13.235 1.773-19.874 1.986-6.038.194-12.239.137-18.132-1.015-10.348-2.022-20.327 1.099-30.474 1.048-5.747-.029-11.477-1.323-17.235-1.6-3.759-.182-7.553.601-11.335.666-7.077.122-14.165-.173-21.234.09-8.669.322-17.37 1.84-25.97 1.343-7.525-.435-15.131-2.342-22.315-4.75-4.812-1.615-5.204 1.889-6.098 3.03-3.93-1.534-7.102-3.412-10.48-3.92-3.783-.57-7.853-.396-11.612.37-3.756.764-7.263 2.713-10.916 4.04-2.99 1.086-6.035 2.02-9.141 3.392-5.783.443-11.48.513-17.732.282-.73-.551-.96-.728-1.245-.833-.065-2.378-.13-4.756-.101-7.572 1.638-.015 3.483.003 4.679.894 7.577 5.642 9.073 5.502 15.386-1.897.566-.664 1.545-.976 3.17-1.498 61.487-.05 122.138-.067 182.788-.05 14.324.005 28.647.122 42.97.187"/><path fill="#edf3f5" d="M241 35.922c-3.36-.001-6.72-.003-10.738-.217-1.527-.07-2.396.072-3.265.215-2.648-.04-5.295-.078-8.361-.14-.419-7.501-.419-14.98-.419-22.897h46.566c0 7.007 0 14.09-.039 21.643-.039.47-.36.371-.743.538-.672.342-.9.577-1.066.872-4.667-.01-9.334-.02-14.748-.269-2.893-.074-5.04.09-7.187.255"/><path fill="#dadbdb" d="M90.997 127.419c74.665-.397 149.302-.368 223.94-.345 23.492.007 46.983.015 70.474-.033 1.958-.004 3.916-.436 6.251-.862 1.259 3.62-1.705 2.408-3.307 2.415-16.987.075-33.975.038-50.962.042-80.607.019-161.213.046-241.82.027-1.534 0-3.068-.536-4.576-1.244"/><path fill="#ebf4f6" d="M206.947 37.966c-.003 10.513-.007 21.026-.021 31.965-3.781.425-7.552.425-11.575.425V35.814c3.527 0 7.108 0 11.135.435.45.863.456 1.29.46 1.717"/><path fill="#f0f7f9" d="M276.138 68.997c.004-10.36.008-20.72-.014-31.772-.028-.692-.024-1.14-.024-1.14h11.704V70.73c-3.293 0-6.562 0-10.278-.332-.76-.688-1.074-1.044-1.388-1.4"/><path fill="#edf5f5" d="M253.828 71.006c3.372 0 6.745.002 10.569.014.451 11.23.451 22.45.451 34.275-3.854 0-7.423 0-11.45-.112-.427-10.825-.394-21.54-.175-32.838.427-.78.566-1.032.605-1.34"/><path fill="#f3fafa" d="M218.358 71.47c11.689-.853 11.67-.854 11.644 10.7-.017 7.315.034 14.63.067 22.416-3.612.472-7.236.472-11.703.472 0-11.038 0-22.08-.008-33.587"/><path fill="#d1d5db" d="M55.776 315.03c.081 3.699.162 7.398.332 11.534-.034 7.645-.157 14.854-.818 21.774-3.847-.652-7.155-1.014-10.463-1.376-.056-6.601-.113-13.203-.048-20.24.149-3.558.176-6.68.598-10.263 1.796-.792 3.575-.697 4.519-1.539 2.184-1.948 3.951-1.243 5.88.11"/><path fill="#dcdfe5" d="M56.1 167.556c.007 7.466-.073 14.487-.596 21.962-3.83-1.201-7.217-2.856-10.605-4.51.032-6.364.064-12.727.461-19.698 1.37-1.064 2.375-1.521 3.38-1.978 1.44.094 2.9.384 4.316.24 2.89-.293 3.17 1.362 3.044 3.984"/><path fill="#5e5f5c" d="M294.002 105.987c-5.962-.002-11.424-.002-16.886-.002l.007-.693H403.34l.004.696zM129 105.005h77.235l-.003.747H80.672q0-.374-.004-.747z"/><path fill="#d1d5db" d="M44.768 185.26c3.52 1.402 6.907 3.057 10.652 4.72.418.767.478 1.527.08 2.673-3.805 1.373-7.15 2.359-10.497 3.345-.326-2.705-.652-5.41-.994-8.54.2-.932.413-1.44.759-2.199"/><path fill="#eff3f6" d="M382.44 372.028c-.441-.831-.44-1.564-.144-2.805A331 331 0 0 1 385 365c.69-3.638 3.505-3.853 6.785-3.948.427 3.034.454 6.05.143 9.606-.614.722-.809.97-.922 1.282-2.708.062-5.417.125-8.566.088"/><path fill="#dadbdb" d="M163.556 117.006c-.38.705-1.215 1.822-2.061 1.831-10.227.108-20.455.066-30.682-.005-.532-.004-1.06-.627-1.71-1.338 11.251-.448 22.622-.519 34.453-.488M345.555 117.008c-.38.705-1.214 1.823-2.06 1.832-10.227.105-20.457.062-30.686-.012-.53-.004-1.056-.63-1.704-1.344 11.25-.444 22.62-.51 34.45-.476"/><path fill="#f2f5f7" d="M411.001 154c1.12-.313 2.24-.627 3.712-.97.45 6.664.55 13.357.526 20.504-.989.524-1.855.594-2.98.11-.592-6.916-.925-13.28-1.258-19.643"/><path fill="#feffff" d="M184.001 54v27.349l-.682-.001v-55.69l.682-.016z"/><path fill="#dadbdb" d="M228.556 117.008c.242.536.018 1.354-.193 1.35-7.713-.12-15.425-.316-23.257-.879 7.583-.442 15.286-.507 23.45-.47M106.558 117.02c-1.034.705-2.482 1.626-4.03 1.846-3.536.504-7.12.665-11.094 1.047-1.174-2.351-.264-3.172 2.232-3.073 4.139.165 8.288.066 12.892.18M279.56 117.026c-1.186.703-2.83 1.802-4.472 1.8-3.288-.004-6.576-.61-9.983-1.343 4.586-.437 9.292-.498 14.455-.457M392.179 119.69a62.6 62.6 0 0 1-11.08-2.21c2.838-.445 5.806-.714 8.734-.48.881.07 1.65 1.538 2.346 2.69"/><path fill="#0f1011" d="m33.997 346.132.001 13.837-.743-.014V339.24l.74-.036c0 2.15 0 4.301.002 6.928"/><path fill="#101212" d="M414.84 150.866v-20.97l.93.012c0 6.868 0 13.737-.366 20.866-.366.26-.565.092-.565.092"/><path fill="#edf3f5" d="M44.745 347.232c3.39.092 6.698.454 10.115 1.19-2.582.432-5.273.49-8.543.283-.806-.512-1.087-.653-1.422-.689-.077-.171-.154-.343-.15-.784"/><path fill="#dadbdb" d="M305.573 117.017c-2.244 3.312-5.3 2.145-8.478.474 2.603-.435 5.32-.505 8.478-.474M126.58 117.018c-1.89 3.362-4.624 2.216-7.489.465 2.278-.428 4.665-.497 7.489-.465M260.578 117.007c-1.886 3.38-4.62 2.235-7.486.465 2.278-.428 4.664-.497 7.486-.465"/><path fill="#a6d4da" d="M275.756 69c.696.353 1.01.71 1.324 1.31-1.731.292-3.462.34-5.613.285 1.022-.6 2.465-1.095 4.29-1.594M207.33 37.815c-.388-.276-.393-.703-.396-1.45 3.37-.402 6.74-.482 10.566-.548-2.958.626-6.373 1.236-10.17 1.998M275.646 35.969c.454.116.45.564.437.788-3.535.039-7.057-.146-10.8-.683 3.155-.309 6.532-.265 10.363-.105"/><path fill="#dadbdb" d="M352.606 117.018a14.2 14.2 0 0 1-4.531.43c1.313-.402 2.717-.468 4.53-.43"/><path fill="#f5f8f9" d="M99.592 140.323c-1.19.313-2.79.523-4.49.42 1.293-.384 2.688-.454 4.49-.42"/><path fill="#dadbdb" d="M244.605 117.012c-.86 2.81-2.547 2.536-4.53.438 1.313-.405 2.716-.473 4.53-.438"/><path fill="#0f1011" d="M48.459 163.18c-.724.609-1.73 1.066-3.1 1.66a12.8 12.8 0 0 1 3.1-1.66"/><path fill="#dadbdb" d="M234.62 117.008c-.894.318-2.183.534-3.554.426.999-.392 2.079-.46 3.554-.426"/><path fill="#e7e9ec" d="M392.228 387.622c-.486-.693-.865-1.794-1.238-3.272.452.703.898 1.784 1.238 3.272"/><path fill="#f5f8f9" d="M92.689 140.339c-.11.594-.532 1.094-1.22 1.627.124-.552.516-1.136 1.22-1.627"/><path fill="#feffff" d="M392.02 141.713c-.362-.06-.641-.396-.965-.96.32.076.684.38.965.96"/><path fill="#e7e9ec" d="M391.334 395.053c-.123-.312.093-.593.559-.98.093.266-.064.639-.56.98M91.701 383.892c.229.357.056.635-.421.979-.111-.255-.003-.63.421-.979"/><path fill="#f6f8f8" d="M391.317 371.984c-.198-.357-.003-.604.492-.888.085.244-.048.588-.492.888"/><path fill="#f5f8f9" d="M91.061 371.3c.335-.187.565-.01.836.437-.23.083-.557-.032-.836-.438"/><path fill="#d1d5db" d="M44.891 348.326c.339-.274.62-.133.981.314-.24.131-.612.063-.98-.314"/><path fill="#101212" d="M415.11 151.659c-.226.222-.402.29-.844.267-.157-.366.012-.597.407-.922.166-.138.365.03.469.11.103.081.017.392-.033.545"/><path fill="#10203e" d="M113.811 173.944c.04-6.342.081-12.684.622-19.546 2.284-.811 4.069-1.356 5.854-1.356 80.867-.043 161.734-.005 242.6-.13 4.313-.007 5.292 1.43 5.218 5.43-.096 5.21.568 10.433.956 15.54.052-.112.29-.053.311.342 1.575.474 3.129.552 5.146.665 5.802.106 11.14.175 16.475.705 0 50.36.003 100.26.005 150.16 0 10.254-.005 10.136-10.167 10.316-3.645.065-7.277.846-10.914 1.3 0 0 .192.27-.123.355s-.748.294-1.037.592c-.43 4.934-.641 9.57-.697 14.207-.08 6.524-.03 6.53-6.47 6.53-79.886.003-159.77.022-239.655-.084-2.623-.003-5.245-1.29-7.867-1.979-.06-5.671-.12-11.343-.125-17.768-.24-.951-.535-1.15-.83-1.349 0 0-.198-.23-.313-.68-5.038-.698-9.987-1.37-14.877-1.075-4.93.297-6.039-1.459-6.022-6.177.167-48.149.077-96.299.117-144.448.008-9.852-1.214-8.22 8.456-8.574 2.526-.093 5.015-1.143 7.522-1.753 1.375-.079 2.75-.157 4.818-.246.794-.333.895-.655.997-.977m95.33 163.785c.345-.1.69-.2 1.91-.34 15.601.007 31.202.013 47.536.406 4.519-.136 9.037-.273 14.2-.442.424-.07.847-.142 1.6.025.29.036.51.18.85.834.299-.196.597-.391 1.053-1.319.042-6.06-.02-12.123.194-18.177.055-1.587.962-3.143 2.412-4.59 6.378-.068 12.755-.137 19.932-.229l1.058-22.573h-23.934v22.791h-6.465c-19.458.003-38.917-.032-58.375.089-1.344.008-2.682 1.173-4.15 2.596a32 32 0 0 1 .01 3.995c.047 1.071.094 2.142-.021 3.954.053.752.105 1.505.02 3.146.034 2.696.068 5.391.092 8.793.6.165 1.2.33 1.716.63 0 0 .088.134.363.41m-19.783-46.697c-.45.044-.899.089-2.137-.034-5.79-.548-3.234 3.441-3.41 6.755.046.744.092 1.488-.106 2.995.421 4.395.843 8.79 2.198 13.31 6.373-.042 12.747-.084 20.001-.052.349-.805.997-1.61 1-2.416.013-5.874-.103-11.747-.002-18.365-.962-.681-1.923-1.362-3.74-2.186-1.732.056-3.464.111-6.064-.003-2.357.046-4.715.092-7.74-.004m110.356-80.452c.083 7.487.166 14.973.312 22.475 0 0 .051-.04-.896-.018h-23.107c0 4.438 0 8.208-.753 12.129-1.59 2.476-2.784 4.91.907 7.559a78 78 0 0 0 .005 3.847c.45.429.894 1.224 1.351 1.23 6.802.11 13.607.178 20.406.04.643-.013 1.257-1.472 1.722-2.768.046-.348.092-.696.8-1.58-.22-5.171-.44-10.342-.82-16.177.054-.449.108-.897 1.024-1.427 11.556-.272 23.112-.634 34.668-.639.891 0 2.426 2.463 2.553 3.88.354 3.946-.032 7.954.212 11.916.083 1.35 1.169 2.638 1.936 4.385 0 0 .016.452.13 1.273 7.667 2.07 15.3 2.536 23.11-1.422v-22.245c-8.121 0-15.72 0-23.167-.928-.082-5.053-.163-10.106-.081-16.03.002-2.075.004-4.15-.244-6.985-.683-.36-1.364-1.029-2.048-1.033-11.696-.067-23.393-.087-35.089.015-.902.007-1.795 1.002-2.93 2.503M206.58 233.34c-7.52-.121-15.04-.243-22.788-1.275-.187-7.524-.374-15.048-1.093-23.325-.443-.21-.884-.601-1.328-.604-11.82-.068-23.64-.142-35.458-.045-.97.008-1.93 1.224-2.852 2.819-.013 7.36-.025 14.721-.975 22.13h-22.015v22.715h22.868c0-7.896 0-15.37.936-22.71 13.412-.051 26.825-.102 39.968.776-.027 6.14-.122 12.28-.024 18.418.02 1.264.766 2.517 1.856 3.899.454-.053.909-.107 2.215.004 2.02-.057 4.04-.114 6.752-.015.468-.052.936-.104 2.21.013 1.365-.06 2.731-.118 4.859-.02.772-.055 1.544-.11 3.042.004.742-.05 1.484-.101 2.723.332.496-.446 1.416-.885 1.423-1.34.103-6.224.147-12.453.004-18.675-.018-.822-1.151-1.618-2.323-3.1"/><path fill="#25324c" d="M113.967 357.38c2.723.3 5.345 1.587 7.968 1.59 79.885.106 159.77.087 239.654.085 6.44 0 6.392-.007 6.47-6.531.057-4.638.268-9.273.74-13.93.416.146.5.313.585.48l-.02 2.024c.051 2.8.11 4.866.168 6.93-.068 2.36-.135 4.72-.206 7.925-.15 2.226-.299 3.606-.907 4.96-8.114.036-15.767.097-23.42.16-1.393-.06-2.785-.12-4.586-.09-14.734.024-29.057-.093-43.38-.097-60.651-.018-121.302-.002-182.41.025-.557-1.033-.657-2.089-.656-3.532"/><path fill="#091424" d="M369.01 173.993c-.337-5.218-1.001-10.441-.905-15.65.074-4.002-.905-5.438-5.218-5.432-80.866.126-161.733.088-242.6.13-1.785.001-3.57.546-5.761.896-.473-.39-.538-.84-.57-1.63 44.145-.391 88.257-.465 132.368-.483 40.618-.018 81.236.024 122.373.51.596 1.87.673 3.27.646 5.127-.18 5.815-.257 11.174-.333 16.532"/><path fill="#061226" d="M107.536 175.086c-2.047.691-4.536 1.741-7.062 1.834-9.67.355-8.448-1.278-8.456 8.574-.04 48.15.05 96.299-.117 144.448-.017 4.718 1.092 6.474 6.022 6.177 4.89-.295 9.839.377 14.96.947-7.081.322-14.36.322-21.864.322V175.005c5.466 0 10.762 0 16.517.08"/><path fill="#141615" d="M67.634 217.6c-1.552-1.923-2.986-4.288-4.42-6.653 1.193-.664 2.386-1.327 3.939-1.993.44 2.734.52 5.47.48 8.647M67.65 302.605c-1.582-1.098-3.05-2.633-4.516-4.169 1.238-1.156 2.477-2.312 4.06-3.474.42 2.397.496 4.801.456 7.643M67.576 184.65c-2.386-.634-4.037-1.762-.468-3.69.41 1.086.506 2.189.468 3.69"/><path fill="#b3b9c3" d="M113.609 174.022c.1.244-.001.566-.385.839-.227-.351-.072-.589.385-.839M113.163 338.106c.245-.033.54.166.75.653-.343.1-.549-.138-.75-.653"/><path fill="#f5f8f9" d="M369.061 173.882c.025-5.247.102-10.606.677-16.422 1.144-.461 1.933-.226 2.407-.512 1.324-.8 2.518-1.816 3.764-2.747-1.32-.734-2.605-1.544-3.975-2.166-.541-.245-1.273-.072-1.917-.09-1.015-5.07 1.35-7.563 6.232-7.47 4.475.085 8.939.706 13.408 1.09l1.242 2.224-5.978 3.228.246 1.668c2.01.438 4.022.877 6.433 1.315.628 4.088-1.069 8.94 5.023 10.689.49.14.658 3.494.026 4.94-.827 1.89-2.599 3.367-4.538 5.187-.753.216-.934.267-1.114.318-5.339-.07-10.677-.14-16.503-.412-.487-.203-.527-.539-.69-.83-1.339-.243-2.516-.195-3.886-.16-.194-.012-.566.097-.566.097s-.239-.059-.29.053M392.527 184c.729-.294 1.841-.383 2.125-.914 2.268-4.257 4.379-8.597 6.538-12.911l1.858.247c0 1.376.243 2.804-.044 4.117-.99 4.536-3.783 9.125 1.531 13.07.79.586.257 2.853.486 4.318.312 1.999.769 3.974 1.316 6.73l5.182-3.767 1.177 12.745c-6.397.94-14.776-1.276-15.85 9.38-.744 7.372 1.43 13.284 6.259 19.833-1.625.599-3.378 1.871-4.717 1.528-.958-.246-1.19-2.771-2.06-4.07-.828-1.235-2.063-2.199-3.555-3.754-.333-11.494-.232-22.516.208-33.557 1.55-1.328 4.006-3.084 3.727-3.859-.7-1.953-2.634-3.464-4.21-5.533-.082-1.455-.026-2.53.03-3.603M392.524 245c3.96-.5 5.591.963 5.576 5.218-.027 7.458.674 14.917.85 22.38.087 3.65-.508 7.142-6.126 5.942-.425-11.486-.362-22.513-.3-33.54"/><path fill="#030d23" d="M392.428 244.544c.034 11.483-.029 22.51.003 33.997.094 19.856.094 39.252.094 59.107-5.702 0-10.662 0-16.074.126-2.192.008-3.934-.11-6.105-.315 3.208-.543 6.84-1.324 10.485-1.389 10.162-.18 10.167-.062 10.167-10.315-.002-49.9-.006-99.8-.005-150.16.184-.512.365-.563.826-.62.365 2.71.448 5.423.62 8.581.033 1.518-.023 2.592-.08 4.482.093 3.536.189 6.256.284 8.976-.102 11.022-.203 22.044-.211 33.526.029 4.823-.035 9.186-.004 14.004"/><path fill="#f5f8f9" d="M410.61 154.002c.724 6.362 1.057 12.726 1.39 19.544a10.8 10.8 0 0 1-.738 2.1l-.87-.056c-.135-1.37-.063-2.803-.45-4.098-.681-2.282-1.473-4.567-2.541-6.687-.874-1.734-3.523-4.041-3.121-4.686 1.467-2.357 3.88-4.126 6.33-6.117M411.013 189.467c.397.582.495 1.16.592 1.738l-1.227-.015c.112-.576.224-1.151.635-1.723"/><path fill="#d6dbe1" d="M55.764 215.995c.06 5.697.119 11.393-.288 17.667-.8 1.278-1.421 1.977-1.424 2.68-.06 14.201-.084 28.404.025 42.605.007 1.02 1.09 2.032 1.672 3.048.066 4.365.131 8.73-.274 13.553-3.807 1.457-7.144 2.456-10.481 3.454-.004-29.356-.008-58.711.374-88.492 4.297.574 8.156 1.658 10.396 5.485"/><path fill="#dcdfe5" d="M55.855 215.535c-2.33-3.367-6.19-4.45-10.48-5.493-.384-4.4-.387-8.758-.38-13.579 3.354-1.451 6.7-2.437 10.41-3.438.422 7.34.481 14.695.45 22.51M44.99 299.47c3.34-1.466 6.678-2.465 10.396-3.465.44 6.048.497 12.097.473 18.585-2.012-.913-3.78-1.618-5.963.33-.944.842-2.723.747-4.513 1.077-.393-5.354-.396-10.707-.393-16.528"/><path fill="#f6f8f8" d="M369.795 151.961c.866.002 1.598-.171 2.139.074 1.37.622 2.655 1.432 3.975 2.166-1.246.93-2.44 1.946-3.764 2.747-.474.286-1.263.05-2.303.055-.472-1.399-.549-2.799-.67-4.62-.045-.42.4-.406.623-.422"/><path fill="#a6d4da" d="M241.248 36.215c1.899-.457 4.046-.622 6.474-.548-1.888.44-4.057.64-6.474.548M227.174 36.182c.692-.405 1.56-.547 2.63-.476-.684.388-1.569.564-2.63.476M263.185 35.874c-.084-.233.144-.468.66-.746.014.16-.197.422-.66.746M253.632 71.11c.157.203.018.455-.41.766-.16-.198-.025-.457.41-.766"/><path fill="#dcdfe5" d="M55.835 281.534c-.668-.555-1.75-1.567-1.758-2.587-.109-14.201-.085-28.404-.025-42.605.003-.703.624-1.402 1.333-2.22.43 15.572.483 31.262.45 47.412"/><path fill="#f1f6fb" d="M345.05 361.439c7.602-.429 15.255-.49 23.662-.329 5.64 3.702 5.14-.144 5.288-3.11l4.458 2.551c-3.57 3.105-2.412 10.668-10.007 7.454.313-1.07.694-1.584 1.075-2.099-1.711-.294-3.485-.985-5.11-.73-.93.146-1.619 1.83-2.416 2.823-4.979-1.378-9.976-2.694-14.917-4.195-.79-.24-1.327-1.311-2.033-2.365"/><path fill="#eff3f6" d="M369.827 348.12c-.353-2.156-.412-4.221-.36-6.717 4.09.208 5.958 3.235 4.181 6.642-.274.525-2.306.133-3.82.074M373.732 357.814c.12 3.152.62 6.998-4.56 3.323-.145-1.578.004-2.958.242-4.749 1.41.14 2.73.69 4.318 1.426M362.428 368c.37-.993 1.058-2.678 1.988-2.824 1.625-.255 3.399.436 5.11.73-.38.515-.762 1.03-1.334 1.819-1.906.275-3.62.275-5.764.274"/><path fill="#f1f6fb" d="M384.625 365c-.427 1.238-1.23 2.475-2.328 3.856-.827-.718-1.357-1.58-1.888-2.441 1.28-.471 2.56-.943 4.216-1.415"/><path fill="#b3b9c3" d="M369.566 338.936c-.266-.029-.351-.196-.478-.64-.042-.277.391-.487.625-.427.293.378.227.667-.147 1.067"/><path fill="#73d6e5" d="M207.113 324.007c-.047-1.07-.094-2.14.274-3.646 1.492-1.74 2.57-3.044 4.114-4.354 19.894-.01 39.323.07 58.75-.092 3.669-.03 5.18.968 4.806 4.761-.504 5.088-.712 10.204-1.517 15.313-21.839.012-43.208.018-64.892.02l-1.575-.027c-.034-2.696-.068-5.391.188-8.53.29-.442.731-.448 1.03-.486.62-.445.942-.852 1.263-1.26-.515-.242-1.03-.483-1.64-.932-.269-.472-.504-.659-.801-.767"/><path fill="#75d2e2" d="M143.024 232.992c.013-7.36.025-14.721.472-22.663 13.535-.667 26.636-.752 39.737-.837.186 7.525.373 15.049.696 23.007.135.434.184.392.184.392-13.412.052-26.825.103-40.683.106-.447-.048-.406-.005-.406-.005"/><path fill="#74d5e3" d="M339.863 216.95c.082 5.053.163 10.106.188 15.604-.056.445-.017.407-.487.435-13.169-.03-25.867-.087-38.562-.602 0-5.425.288-10.415-.087-15.354-.376-4.967 1.68-6.291 6.327-6.103 7.604.308 15.244.364 22.842-.02 4.964-.25 8.303 1.128 9.78 6.04"/><path fill="#75d0e0" d="M299.804 235.97c-.054.449-.108.897-.176 2.139.049 5.835.11 10.878.172 15.92-.046.348-.092.696-.48 1.49-7.96.37-15.58.294-23.2.217.02-1.004.039-2.008.068-3.81-.049-2.836-.106-4.874-.164-6.912v-11.978c8.058 0 15.583 0 23.401.328.322 1.087.35 1.847.38 2.606"/><path fill="#79d3e4" d="M339.975 233.018c7.58.02 15.179.02 23.3.02 0 7.729 0 14.986-.595 22.697-7.94.351-15.285.25-22.63.148 0 0-.015-.452-.001-1.13.004-7.715-.005-14.754-.015-21.792z"/><path fill="#7ad4e4" d="M142.962 232.93c-.022 7.454-.022 14.929-.022 22.825h-22.868V233.04c7.474 0 14.744 0 22.484-.024.468-.024.427-.067.406-.087"/><path fill="#75d6e4" d="M205.025 313.931c-6.374.042-12.748.084-19.58-.396-.462-4.853-.467-9.183-.462-13.894.003-1.142-.005-1.903-.008-3.05 1.002-1.465 2-2.541 3.388-3.607 1.81-.313 3.23-.637 4.977-.96.763.002 1.2.004 1.93.29 3.435.42 6.577.56 9.722 1.166.013 7.129.023 13.79.033 20.451"/><path fill="#78d1e0" d="M298.029 313.92c-6.378.069-12.755.138-19.592-.324-.458-2.186-.527-3.844-.443-5.495.249-4.882-1.248-11.702 1.34-14.11 2.722-2.534 9.384-.692 14.302-1.056 3.607-.267 4.57 1.238 4.438 4.603-.214 5.453-.05 10.92-.045 16.382"/><path fill="#73d6e5" d="M196.048 255.97c-.469.053-.937.105-2.003-.197-2.734-.168-4.87.019-7.006.205-.454.053-.909.107-1.698-.372-.334-6.005-.275-11.48-.36-16.953-.038-2.387.579-3.755 3.318-3.677 4.475.128 8.968-.142 13.426.156 1.137.076 3.11 1.664 3.106 2.55-.031 6.091-.485 12.181-.803 18.272-.772.055-1.544.11-2.92-.176-2.09-.164-3.575.014-5.06.192"/><path fill="#86c0d6" d="M298.429 313.909c-.405-5.45-.57-10.918-.355-16.371.133-3.365-.831-4.87-4.438-4.603-4.918.364-11.58-1.478-14.303 1.056-2.587 2.408-1.09 9.228-1.34 14.11-.083 1.65-.014 3.31-.023 5.433-.524 2.039-1.43 3.595-1.486 5.182-.213 6.054-.152 12.117-.551 18.545-.533.427-.709.486-.884.546-.151-.25-.372-.393-.843-.837-.185-.6-.19-.793-.196-.986.335-5.104.543-10.22 1.047-15.308.375-3.793-1.137-4.792-4.806-4.761-19.427.162-38.856.081-59.146.078-1.913 0-2.964.006-4.016.012 1.341-.628 2.679-1.793 4.023-1.801 19.458-.12 38.917-.086 58.375-.089h6.465v-22.79h23.934c-.355 7.564-.706 15.068-1.457 22.584"/><path fill="#063149" d="M339.564 232.989c.48 7.01.49 14.049.415 21.549-.711-.854-1.797-2.142-1.88-3.492-.244-3.962.142-7.97-.212-11.916-.127-1.417-1.662-3.88-2.553-3.88-11.556.005-23.112.367-35.099.68-.46-.72-.488-1.479-.336-2.577.18-.338.128-.299.36-.33.4-.079.57-.128.739-.178 12.699.057 25.397.115 38.566.144"/><path fill="#86ccdf" d="M204.39 256.039c-.044-6.176.41-12.266.44-18.358.005-.885-1.968-2.473-3.105-2.549-4.458-.298-8.951-.028-13.426-.156-2.74-.078-3.356 1.29-3.319 3.677.086 5.473.027 10.948.022 16.891-.416-.788-1.161-2.04-1.182-3.305-.098-6.138-.003-12.279.158-18.883.135-.465.086-.423.064-.401 7.499.142 15.02.264 22.75 1.186.204 7.81.196 14.821.187 21.831-.741.051-1.483.102-2.588.067"/><path fill="#001c32" d="M299.953 209.613c.898-.535 1.791-1.53 2.693-1.537 11.696-.102 23.393-.082 35.089-.015.684.004 1.365.673 1.705 1.361-13.391.283-26.44.237-39.487.191M182.966 209.116c-12.834.461-25.935.546-39.491.743.51-.544 1.47-1.76 2.44-1.768 11.817-.097 23.637-.023 35.457.045.444.003.885.394 1.594.98"/><path fill="#95d4e9" d="M299.834 210.096c13.167-.437 26.215-.391 39.731-.295.466 2.127.464 4.203.38 6.714-1.558-4.477-4.897-5.855-9.861-5.605-7.598.384-15.238.328-22.842.02-4.647-.188-6.703 1.136-6.327 6.103.375 4.94.088 9.929.087 15.354-.173.508-.342.557-.775.63-.346-7.465-.43-14.951-.393-22.92"/><path fill="#82d6e6" d="M273.54 335.99c.475.187.48.38.501.861-.407.36-.83.431-2.033.373-5.238-.025-9.696.08-14.154.185-15.6-.007-31.202-.013-47.57-.097-.983-.004-1.2.068-1.417.14 0 0-.088-.134-.008-.494.088-.554.096-.75.104-.945 21.37-.006 42.738-.012 64.577-.024"/><path fill="#063149" d="M276.152 256.154c7.588-.341 15.208-.265 23.25-.38-.205.595-.819 2.054-1.462 2.067-6.8.138-13.604.07-20.406-.04-.457-.006-.9-.801-1.382-1.647"/><path fill="#001c32" d="M207.228 256.214c-.24-7.252-.232-14.262-.158-21.736.683.345 1.816 1.14 1.834 1.963.143 6.222.099 12.45-.004 18.675-.007.455-.927.894-1.672 1.098"/><path fill="#063149" d="M340.108 256.294c7.287-.31 14.632-.208 22.446-.09-7.089 3.036-14.722 2.57-22.446.09"/><path fill="#86ccdf" d="M205.465 313.968c-.45-6.698-.46-13.36-.465-20.496.004-.476.018-.49.248-.398.646.36 1.063.627 1.48.894.074 5.874.19 11.747.176 17.621-.002.806-.65 1.61-1.44 2.38"/><path fill="#86c0d6" d="M184.973 300.021c.005 4.33.01 8.661.006 13.452-.43-3.936-.852-8.33-.895-13.097.548-.366.719-.36.889-.355M187.973 292.973c-.998 1.077-1.996 2.153-3.253 3.626-.43.404-.6.41-.77.418.038-2.579-2.518-6.568 3.662-5.634.381.787.371 1.189.361 1.59"/><path fill="#86ccdf" d="M204.996 293.004c-3.15-.13-6.29-.27-9.4-.701.812-.562 1.592-.83 2.372-1.098 1.731-.056 3.463-.111 5.736.136.8.75 1.057 1.195 1.314 1.64z"/><path fill="#063149" d="M300.13 253.761c-.392-4.774-.453-9.817-.421-15.32.313 4.71.533 9.88.422 15.32"/><path fill="#347b8d" d="M258.22 337.602c4.092-.298 8.55-.403 13.466-.362-4.062.282-8.58.419-13.465.362"/><path fill="#063149" d="M275.647 245.09c.435 1.962.492 4 .463 6.467-3.623-1.483-2.43-3.916-.463-6.467"/><path fill="#82d6e6" d="M207.026 316.402c1.115-.403 2.166-.41 3.613-.402-.682 1.317-1.76 2.622-3.17 3.966-.392-1.03-.45-2.098-.443-3.564"/><path fill="#86c0d6" d="M197.534 291.12c-.346.353-1.126.621-2.233.9-.762.008-1.198.006-2.287-.005-1.432-.287-2.21-.565-2.988-.843 2.358-.045 4.716-.091 7.508-.052"/><path fill="#86ccdf" d="M187.465 256.06a32.6 32.6 0 0 1 6.233-.365c-1.768.333-3.787.39-6.233.365M189.693 291.102c1.11.348 1.889.626 2.993.913-1.093.332-2.513.656-4.323.969-.38-.412-.37-.814-.356-1.518.453-.346.903-.39 1.686-.364"/><path fill="#86c0d6" d="M205.248 293.074c-.487-.538-.744-.984-1.116-1.661.848.449 1.81 1.13 2.683 2.183-.504.105-.92-.162-1.567-.522"/><path fill="#b3b9c3" d="M369.372 174.224c-.02-.395.352-.504.902-.329 1.598.213 2.645.25 3.693.288 0 0 .04.336.064.504-1.53.089-3.084.01-4.659-.463"/><path fill="#86ccdf" d="M196.45 256.055c1.083-.263 2.568-.441 4.276-.356-1.142.323-2.508.382-4.276.356M183.88 297.384c.24-.374.41-.381.836-.397.262.751.27 1.512.267 2.654-.18.375-.35.37-.777.353-.302-.754-.348-1.498-.325-2.61"/><path fill="#86c0d6" d="M207.992 327.004s-.441.006-.662.004c-.274-.754-.326-1.507-.298-2.63.378-.263.613-.076.875.733.088.994.086 1.443.085 1.893M208.648 336.008c.307.2.299.396.254.883-.638.126-1.239-.038-1.834-.556.425-.346.845-.34 1.58-.327"/><path fill="#001c32" d="M275.143 338.01c.081-.263.257-.322.711-.383-.02.194-.318.39-.71.383"/><path fill="#347b8d" d="M209.004 337.59c.08-.21.297-.282.842-.257-.015.197-.36.296-.842.257"/><path fill="#f6f8f8" d="M373.804 173.892c-.885.254-1.932.216-3.336.016.82-.21 1.997-.259 3.336-.016M392.981 196.995c-.433-2.701-.529-5.421-.486-8.576 1.579 1.253 3.512 2.764 4.213 4.717.279.775-2.178 2.531-3.727 3.86"/><path fill="#82d6e6" d="M208.291 326.966c-.298-.412-.296-.861-.288-1.648.521-.095 1.036.146 1.55.388-.32.408-.641.815-1.262 1.26"/></svg>